<svg width="40" height="40" viewBox="0 0 40 40" fill="none" xmlns="http://www.w3.org/2000/svg">
<path d="M37.23 16.98L37.34 17.02V15.05C37.34 14.74 37.29 14.43 37.18 14.13C37.07 13.83 36.92 13.54 36.72 13.28C36.54 13.05 36.33 12.83 36.1 12.65C35.89 12.49 35.67 12.35 35.43 12.24C35.28 12.14 34.98 12 34.17 11.67C33.48 11.4 32.37 10.98 30.93 10.56C29.62 10.17 27.93 9.74 26.06 9.42C26.05 9.4 24.79 7.83 22.9 8.64C22.84 8.67 22.77 8.7 22.71 8.73C22.43 8.87 22.18 8.99 21.7 8.86C21.42 8.78 21.06 8.61 21.2 7.98C21.23 7.84 21.34 7.65 21.52 7.55C21.64 7.48 21.77 7.46 21.91 7.5C22.16 7.57 22.27 7.71 22.23 7.92C22.22 8 22.16 8.08 22.08 8.11C22 8.14 21.92 8.12 21.82 8.06C21.73 8 21.61 8.02 21.54 8.11C21.48 8.2 21.5 8.33 21.59 8.39C21.8 8.53 22.03 8.57 22.23 8.48C22.43 8.4 22.58 8.21 22.61 7.99C22.64 7.83 22.68 7.31 22.01 7.12C21.77 7.05 21.52 7.08 21.31 7.2C21.07 7.34 20.87 7.61 20.81 7.89C20.81 7.9 20.81 7.91 20.81 7.91C20.73 7.8 20.65 7.71 20.61 7.67L19.96 7L19.31 7.67C19.27 7.71 19.19 7.8 19.11 7.91C19.11 7.9 19.11 7.89 19.11 7.89C19.05 7.62 18.85 7.35 18.61 7.2C18.39 7.07 18.15 7.05 17.91 7.12C17.24 7.32 17.28 7.84 17.31 7.99C17.35 8.2 17.5 8.39 17.69 8.48C17.89 8.57 18.12 8.53 18.33 8.39C18.42 8.33 18.44 8.2 18.38 8.11C18.32 8.02 18.19 8 18.1 8.06C18 8.13 17.92 8.14 17.84 8.11C17.77 8.08 17.71 8 17.69 7.92C17.65 7.71 17.76 7.57 18.01 7.5C18.15 7.46 18.28 7.48 18.4 7.55C18.57 7.65 18.68 7.84 18.72 7.98C18.87 8.61 18.51 8.79 18.22 8.86C17.74 8.99 17.49 8.87 17.21 8.73C17.15 8.7 17.08 8.67 17.02 8.64C15.13 7.83 13.87 9.4 13.85 9.42C13.85 9.42 13.85 9.43 13.84 9.43C12.04 9.74 10.41 10.15 9.14 10.52C6.7 11.24 4.73 12.13 4.65 12.17L4.39 12.29V12.33C4.28 12.35 4.16 12.38 4.05 12.44C3.63 12.63 3.22 12.84 2.81 13.04L2.5 13.2V14.27C2.5 14.53 2.55 14.74 2.65 14.92C2.67 14.96 2.69 14.99 2.72 15.02V16.21C2.58 16.47 2.51 16.74 2.51 17C2.51 17.26 2.58 17.49 2.72 17.67V20.15L2.75 20.22C2.77 20.28 3.16 21.33 4.34 21.76L4.31 21.78C4.31 21.78 4.93 22.78 5.89 22.99L5.71 23.07C5.71 23.07 6.39 24.17 7.7 24.4L7.51 24.49C7.51 24.49 8.36 25.4 9.68 25.57C11.08 29.92 15.16 33.08 19.97 33.08C24.78 33.08 28.86 29.92 30.26 25.57C31.58 25.4 32.43 24.49 32.43 24.49L32.24 24.4C33.55 24.17 34.23 23.07 34.23 23.07L34.05 22.99C35.01 22.78 35.63 21.78 35.63 21.78L35.69 21.7C36.79 21.23 37.43 20.16 37.43 19.15V17.89C37.4 17.58 37.33 17.27 37.23 16.98ZM25.38 9.32C24.6 9.2 23.8 9.11 22.98 9.05C23 9.04 23.03 9.03 23.05 9.02C24.12 8.56 24.94 8.98 25.38 9.32ZM16.85 9.02C16.88 9.03 16.9 9.04 16.92 9.06C16.1 9.12 15.29 9.22 14.51 9.34C14.96 8.99 15.79 8.56 16.85 9.02Z" fill="#B4975A"/>
<path d="M36.3192 16.1401L36.8992 16.3701V15.0501C36.8992 14.7901 36.8492 14.5301 36.7692 14.2801C36.6792 14.0201 36.5392 13.7701 36.3792 13.5501C36.2192 13.3401 36.0392 13.1601 35.8392 13.0001C35.6492 12.8501 35.4492 12.7301 35.2292 12.6301C35.1192 12.5501 34.8192 12.4001 34.0192 12.0901C33.3392 11.8201 32.2392 11.4101 30.8192 10.9901C28.4892 10.2901 24.9792 9.47013 21.3192 9.42013C21.2292 9.17013 21.0292 8.98013 20.7492 8.91013C20.7192 8.43013 20.3692 8.06013 20.2992 7.98013L19.9592 7.63013L19.6192 7.98013C19.5492 8.05013 19.1992 8.43013 19.1692 8.91013C18.8992 8.97013 18.6892 9.16013 18.5992 9.41013C14.9992 9.47013 11.5592 10.2701 9.26922 10.9501C6.82922 11.6701 4.83922 12.5801 4.83922 12.5801V12.8501C4.83922 12.8501 4.80922 12.8301 4.78922 12.8201C4.71922 12.7901 4.64922 12.7701 4.56922 12.7701C4.46922 12.7701 4.35922 12.8001 4.23922 12.8501C3.82922 13.0401 3.41922 13.2401 3.01922 13.4401L2.94922 13.4701V14.2801C2.94922 14.4601 2.97922 14.6001 3.04922 14.7101C3.07922 14.7701 3.12922 14.8201 3.17922 14.8601V16.3301C3.04922 16.5501 2.96922 16.7901 2.96922 17.0101C2.96922 17.2301 3.03922 17.4001 3.17922 17.5101V20.0801C3.17922 20.0801 3.56922 21.1501 4.78922 21.4301C4.81922 21.4401 4.84922 21.4401 4.87922 21.4501C4.87922 21.4501 4.87922 21.4501 4.88922 21.4501C5.07922 21.4901 5.28922 21.5101 5.51922 21.5001C5.29922 21.6101 5.08922 21.7101 4.86922 21.8301C4.86922 21.8401 5.51922 22.9001 7.05922 22.7501C6.79922 22.8701 6.54922 23.0001 6.28922 23.1201C6.28922 23.1301 7.02922 24.1701 8.66922 24.1501C8.28922 24.3401 8.06922 24.4601 8.06922 24.4601C8.06922 24.4701 8.80922 25.1801 10.0392 25.2601C11.3192 29.5301 15.2792 32.6501 19.9692 32.6501C24.6592 32.6501 28.6192 29.5401 29.8992 25.2601C31.1392 25.1701 31.8692 24.4601 31.8692 24.4601C31.8692 24.4601 31.6392 24.3401 31.2692 24.1501C32.8992 24.1801 33.6392 23.1401 33.6492 23.1201C33.3892 22.9901 33.1392 22.8701 32.8792 22.7501C34.4292 22.9001 35.0692 21.8501 35.0692 21.8301C34.8492 21.7201 34.6392 21.6101 34.4192 21.5001C34.9492 21.5401 35.3792 21.3901 35.7092 21.2001C36.5392 20.7501 36.9792 19.8901 36.9792 19.1501V17.8901C36.9592 17.0801 36.3192 16.1401 36.3192 16.1401Z" fill="#0A2240"/>
<path d="M26.8505 26.1402C27.0405 26.2902 27.2405 26.4402 27.4305 26.5902C27.4305 26.5702 25.1305 27.2202 23.4805 26.5002C23.4205 26.4702 23.3605 26.4402 23.3005 26.4102C22.8905 27.8802 21.5405 28.9702 19.9405 28.9702C18.3405 28.9702 16.9905 27.8802 16.5805 26.4102C16.5205 26.4402 16.4705 26.4702 16.4005 26.5002C14.7605 27.2202 12.4505 26.5702 12.4505 26.5902C12.6405 26.4402 12.8405 26.2902 13.0305 26.1402C12.2305 26.2602 11.4905 26.1102 10.9805 25.9502C12.4305 29.4702 15.8905 31.9502 19.9305 31.9502C23.9705 31.9502 27.4305 29.4702 28.8805 25.9502C28.3905 26.1202 27.6505 26.2602 26.8505 26.1402Z" fill="#CE0E2D"/>
<path d="M18.9923 10.42C18.8123 10.33 18.6823 10.18 18.6123 10C12.8123 10.15 7.02234 12.23 7.04234 12.31C6.79234 12.4 6.65234 12.62 6.65234 12.77V12.98C10.6523 11.43 14.8223 10.61 19.0023 10.51L18.9923 10.42Z" fill="white"/>
<path d="M33.2302 12.46C33.2402 12.38 27.1702 10.15 21.2902 10C21.2202 10.18 21.0802 10.33 20.9102 10.42V10.5C25.2102 10.62 29.5102 11.5 33.6202 13.12V12.91C33.6202 12.77 33.4802 12.55 33.2302 12.46Z" fill="white"/>
<path d="M20.5903 9.37007C20.2103 9.32007 20.1503 9.86007 20.1403 10.0401H20.0203C20.0203 9.53007 20.2703 9.32007 20.2703 8.98007C20.2703 8.64007 19.9603 8.32007 19.9603 8.32007C19.9603 8.32007 19.6503 8.64007 19.6503 8.98007C19.6503 9.32007 19.8903 9.53007 19.8903 10.0401H19.7703C19.7603 9.86007 19.7003 9.32007 19.3203 9.37007C18.9103 9.42007 18.9603 9.98007 19.3203 10.0301C19.3203 10.0301 19.2503 9.78007 19.4503 9.78007C19.6003 9.78007 19.6403 9.95007 19.6503 10.0401H19.4803H19.4703V10.2401H19.4803H19.8703C19.8203 10.4301 19.6903 10.4901 19.6903 10.4901C19.6903 10.4901 19.7403 10.6001 19.8603 10.6101C19.8603 10.6101 19.8603 10.7401 19.9603 10.8501C20.0603 10.7501 20.0603 10.6101 20.0603 10.6101C20.1803 10.6001 20.2303 10.4901 20.2303 10.4901C20.2303 10.4901 20.1003 10.4301 20.0503 10.2401H20.4403V10.0401H20.2703C20.2803 9.95007 20.3203 9.78007 20.4703 9.78007C20.6703 9.78007 20.6003 10.0301 20.6003 10.0301C20.9503 9.98007 20.9903 9.42007 20.5903 9.37007Z" fill="#CE0E2D"/>
<path d="M18.7317 13.2802V12.0302C18.7317 11.8602 18.7017 11.7002 18.6317 11.5802C18.5717 11.4502 18.4817 11.3502 18.3717 11.2702C18.2617 11.1902 18.1317 11.1302 17.9817 11.1002C17.8317 11.0702 17.6717 11.0602 17.4917 11.0702C17.3217 11.0802 17.1517 11.1102 17.0017 11.1702C16.8517 11.2202 16.7217 11.3002 16.6017 11.3902C16.4917 11.4802 16.4017 11.6002 16.3417 11.7402C16.2817 11.8802 16.2417 12.0302 16.2417 12.2102V13.4702C16.1117 13.5002 16.0117 13.6302 16.0117 13.7602C16.0117 13.9002 16.1117 13.9902 16.2417 14.0002V15.4102C16.2417 15.5802 16.2717 15.7302 16.3417 15.8602C16.4017 15.9802 16.4917 16.0902 16.6017 16.1602C16.7117 16.2402 16.8417 16.2902 17.0017 16.3202C17.1517 16.3502 17.3117 16.3602 17.4917 16.3502C17.6617 16.3402 17.8317 16.3102 17.9817 16.2602C18.1317 16.2102 18.2617 16.1402 18.3717 16.0502C18.4817 15.9602 18.5717 15.8502 18.6317 15.7102C18.6917 15.5802 18.7317 15.4202 18.7317 15.2502V13.8402C18.8717 13.8202 18.9817 13.7002 18.9817 13.5702C18.9817 13.4002 18.8717 13.2902 18.7317 13.2802ZM18.0417 15.2202C18.0417 15.3102 18.0217 15.3902 17.9917 15.4502C17.9617 15.5102 17.9117 15.5702 17.8617 15.6102C17.8117 15.6502 17.7517 15.6802 17.6917 15.7102C17.6317 15.7302 17.5617 15.7502 17.5017 15.7502C17.4317 15.7502 17.3717 15.7502 17.3017 15.7402C17.2317 15.7302 17.1817 15.7002 17.1217 15.6702C17.0717 15.6402 17.0317 15.5902 16.9917 15.5302C16.9617 15.4702 16.9417 15.4002 16.9417 15.3002V12.1602C16.9417 12.0702 16.9617 11.9902 16.9917 11.9302C17.0217 11.8702 17.0717 11.8102 17.1217 11.7702C17.1717 11.7302 17.2317 11.6902 17.3017 11.6702C17.3717 11.6502 17.4317 11.6302 17.5017 11.6302C17.5717 11.6302 17.6317 11.6302 17.6917 11.6502C17.7517 11.6602 17.8117 11.6902 17.8617 11.7302C17.9117 11.7702 17.9517 11.8102 17.9917 11.8702C18.0217 11.9302 18.0417 12.0102 18.0417 12.1002V15.2202Z" fill="white"/>
<path d="M5.42953 16.6601C5.42953 16.6701 5.42953 16.6801 5.41953 16.6701C5.40953 16.6601 5.40953 16.6601 5.39953 16.6501C5.37953 16.5901 4.55953 13.8501 4.50953 13.7301C4.46953 13.6001 4.43953 13.5401 4.43953 13.5301C4.42953 13.4901 4.40953 13.4601 4.37953 13.4501C4.34953 13.4401 4.30953 13.4401 4.25953 13.4701C4.00953 13.5901 3.76953 13.7001 3.51953 13.8201V14.0501C3.51953 14.1301 3.52953 14.1901 3.54953 14.2201C3.56953 14.2601 3.59953 14.2801 3.62953 14.3001C3.65953 14.3201 3.69953 14.3201 3.73953 14.3201V16.4101C3.61953 16.4901 3.52953 16.6401 3.52953 16.7801C3.52953 16.9101 3.61953 16.9801 3.73953 16.9401V19.8901C3.92953 19.8001 4.11953 19.7101 4.31953 19.6201V15.9201C4.31953 15.8901 4.31953 15.8801 4.32953 15.8801L4.33953 15.8901C4.33953 15.8901 4.35953 15.9601 4.40953 16.0801C4.44953 16.2001 5.25953 18.9001 5.26953 18.9201C5.28953 18.9901 5.31953 19.0401 5.33953 19.0801C5.35953 19.1201 5.40953 19.1301 5.45953 19.1001C5.58953 19.0501 5.71953 18.9901 5.84953 18.9401C5.89953 18.9201 5.93953 18.8801 5.96953 18.8401C5.99953 18.7901 6.00953 18.7501 6.00953 18.7001V15.9301C6.11953 15.8501 6.19953 15.7201 6.19953 15.6001C6.19953 15.4801 6.11953 15.4101 6.00953 15.4201V13.3701C6.00953 13.3301 6.01953 13.2901 6.02953 13.2701C6.03953 13.2501 6.05953 13.2201 6.06953 13.2001C6.10953 13.1601 6.13953 13.1001 6.17953 13.0401C6.21953 12.9801 6.22953 12.9001 6.22953 12.8301V12.6301C5.95953 12.7401 5.68953 12.8501 5.41953 12.9701V16.6601H5.42953Z" fill="white"/>
<path d="M32.8194 16.7101C32.8194 16.7201 32.8194 16.7201 32.8094 16.7101C32.7994 16.7001 32.7994 16.6901 32.7894 16.6801C32.7694 16.6101 32.7394 16.4801 32.6794 16.2801C32.6294 16.0801 32.5594 15.8501 32.4894 15.5901C32.4194 15.3301 32.3494 15.0501 32.2694 14.7701C32.1894 14.4801 32.1194 14.2201 32.0494 13.9801C31.9794 13.7401 31.9194 13.5401 31.8794 13.3701C31.8294 13.2101 31.8094 13.1201 31.8094 13.1101C31.7994 13.0601 31.7794 13.0201 31.7494 12.9801C31.7194 12.9501 31.6794 12.9201 31.6294 12.9001C31.3694 12.8201 31.1194 12.7301 30.8594 12.6501V12.8801C30.8594 12.9601 30.8694 13.0201 30.8894 13.0801C30.9094 13.1401 30.9394 13.1801 30.9694 13.2201C30.9994 13.2601 31.0394 13.3001 31.0894 13.3301V14.9601C30.9694 14.9401 30.8694 15.0301 30.8694 15.1601C30.8694 15.2901 30.9594 15.4301 31.0894 15.4901V17.8801C31.2894 17.9401 31.4894 18.0101 31.6894 18.0701V14.8001C31.6894 14.7701 31.6894 14.7601 31.6994 14.7701C31.6994 14.7801 31.7094 14.7801 31.7094 14.8001C31.7094 14.8101 31.7294 14.8901 31.7794 15.0501C31.8294 15.2101 31.8794 15.4101 31.9494 15.6501C32.0194 15.8901 32.0894 16.1501 32.1694 16.4301C32.2494 16.7101 32.3194 16.9701 32.3894 17.2201C32.4594 17.4701 32.5194 17.6801 32.5694 17.8501C32.6194 18.0301 32.6494 18.1301 32.6594 18.1501C32.6794 18.2401 32.7094 18.3101 32.7294 18.3701C32.7594 18.4301 32.7994 18.4701 32.8494 18.4901C32.9794 18.5401 33.1094 18.5901 33.2394 18.6401C33.2894 18.6601 33.3294 18.6601 33.3594 18.6301C33.3894 18.6001 33.3994 18.5701 33.3994 18.5201V16.3001C33.5094 16.3101 33.5894 16.2401 33.5894 16.1201C33.5894 16.0001 33.5094 15.8601 33.3994 15.7901V14.2001C33.3994 14.1601 33.4094 14.1301 33.4194 14.1201C33.4294 14.1101 33.4494 14.0901 33.4594 14.0801C33.4994 14.0701 33.5294 14.0401 33.5694 14.0101C33.6094 13.9701 33.6194 13.9201 33.6194 13.8401V13.6401C33.3494 13.5301 33.0694 13.4301 32.7994 13.3301V16.7101H32.8194Z" fill="white"/>
<path d="M36.2392 17.2301C36.1592 17.0501 36.0492 16.8701 35.9292 16.7001C35.8292 16.5601 35.7192 16.4201 35.5992 16.2801C35.6092 16.2601 35.6092 16.2401 35.6092 16.2201C35.6092 16.0701 35.4892 15.9001 35.3492 15.8301C35.2892 15.8001 35.2292 15.8001 35.1892 15.8201C35.1692 15.8001 35.1492 15.7701 35.1292 15.7501C35.0092 15.6101 34.8992 15.4801 34.8192 15.3601C34.7392 15.2401 34.6892 15.1401 34.6892 15.0401V13.9501C34.6892 13.9001 34.7092 13.8601 34.7392 13.8401C34.7692 13.8101 34.8092 13.8001 34.8592 13.7901C34.9092 13.7801 34.9592 13.7901 35.0092 13.7901C35.0592 13.8001 35.1092 13.8201 35.1592 13.8401C35.1992 13.8601 35.2492 13.8901 35.3092 13.9201C35.3592 13.9601 35.4192 14.0001 35.4592 14.0401C35.5092 14.0901 35.5392 14.1401 35.5692 14.1901C35.5992 14.2501 35.6192 14.3001 35.6192 14.3601V14.6201C35.6192 14.7301 35.6592 14.8401 35.7292 14.9501C35.7992 15.0601 35.8992 15.1401 36.0092 15.1901C36.1092 15.2401 36.2092 15.2801 36.2992 15.3301V14.8201C36.2992 14.6501 36.2692 14.4801 36.2192 14.3201C36.1592 14.1601 36.0792 14.0201 35.9792 13.8801C35.8792 13.7501 35.7592 13.6201 35.6192 13.5201C35.4792 13.4101 35.3292 13.3201 35.1692 13.2501C35.0092 13.1801 34.8592 13.1301 34.7192 13.1101C34.5792 13.0901 34.4592 13.1001 34.3592 13.1401C34.2592 13.1801 34.1792 13.2601 34.1192 13.3601C34.0592 13.4701 34.0292 13.6101 34.0292 13.8001V14.7001C34.0292 14.8901 34.0692 15.0701 34.1492 15.2401C34.2292 15.4101 34.3392 15.5701 34.4592 15.7201C34.5792 15.8701 34.7092 16.0201 34.8492 16.1601C34.8392 16.1901 34.8292 16.2201 34.8292 16.2601C34.8292 16.4101 34.9492 16.5801 35.0892 16.6401C35.1692 16.6801 35.2392 16.6701 35.2892 16.6301C35.3992 16.7601 35.4992 16.9001 35.5692 17.0301C35.6492 17.1801 35.6892 17.3201 35.6892 17.4801V18.7701C35.6892 18.8301 35.6692 18.8801 35.6392 18.9101C35.6092 18.9401 35.5592 18.9601 35.5092 18.9801C35.4592 18.9901 35.3992 18.9901 35.3392 18.9801C35.2792 18.9701 35.2192 18.9601 35.1592 18.9301C35.0992 18.9001 35.0392 18.8701 34.9792 18.8201C34.9192 18.7701 34.8592 18.7201 34.8092 18.6701C34.7592 18.6201 34.7192 18.5601 34.6792 18.5001C34.6492 18.4401 34.6292 18.3801 34.6292 18.3201V18.0201C34.6292 17.9101 34.5992 17.8201 34.5392 17.7401C34.4792 17.6601 34.3892 17.5901 34.2692 17.5401C34.1592 17.5001 34.0592 17.4501 33.9492 17.4101V17.9301C33.9492 18.1001 33.9792 18.2701 34.0492 18.4301C34.1092 18.5901 34.1992 18.7301 34.3092 18.8601C34.4192 18.9901 34.5492 19.1101 34.6892 19.2101C34.8392 19.3101 34.9892 19.4001 35.1492 19.4801C35.3092 19.5501 35.4692 19.6001 35.6092 19.6301C35.7592 19.6601 35.8792 19.6501 35.9892 19.6201C36.0992 19.5901 36.1892 19.5201 36.2492 19.4201C36.3192 19.3201 36.3492 19.1801 36.3492 19.0101V17.7701C36.3592 17.5901 36.3192 17.4101 36.2392 17.2301Z" fill="white"/>
<path d="M12.998 14.2502C12.968 14.4902 12.938 14.7302 12.918 14.9702C12.888 15.2102 12.868 15.4102 12.838 15.6002C12.818 15.7802 12.798 15.9302 12.778 16.0402C12.768 16.1502 12.758 16.2102 12.748 16.2102C12.688 15.8902 12.638 15.6002 12.598 15.3402C12.558 15.0802 12.508 14.8002 12.448 14.4802C12.398 14.1602 12.338 13.8502 12.288 13.5402C12.228 13.2302 12.178 12.9502 12.128 12.6802C12.078 12.4202 12.038 12.2102 11.998 12.0602C11.988 12.0102 11.948 11.9802 11.868 11.9602C11.788 11.9402 11.718 11.9502 11.638 11.9602C11.568 11.9802 11.498 12.0102 11.418 12.0502C11.338 12.0902 11.298 12.1502 11.288 12.2102C11.248 12.3702 11.208 12.5902 11.158 12.8802C11.108 13.1602 11.058 13.4702 10.998 13.8102C10.948 14.1402 10.888 14.4802 10.838 14.8202C10.788 15.1602 10.738 15.4802 10.688 15.7602C10.648 16.0402 10.598 16.3602 10.538 16.7102C10.538 16.7102 10.528 16.6602 10.508 16.5502C10.488 16.4402 10.478 16.3002 10.448 16.1302C10.428 15.9602 10.408 15.7602 10.378 15.5402C10.348 15.3202 10.318 15.0902 10.298 14.8602C10.238 14.3202 10.008 12.3602 10.008 12.3602C9.72797 12.4402 9.44797 12.5202 9.16797 12.6002V12.8102C9.16797 12.8902 9.18797 12.9502 9.21797 12.9902C9.24797 13.0302 9.28797 13.0602 9.31797 13.0702C9.33797 13.0802 9.35797 13.1002 9.37797 13.1102C9.39797 13.1302 9.40797 13.1502 9.41797 13.1902C9.48797 13.7402 9.54797 14.2502 9.59797 14.7302C9.49797 14.8002 9.42797 14.9102 9.42797 15.0302C9.42797 15.1602 9.52797 15.2502 9.65797 15.2302C9.65797 15.2402 9.65797 15.2502 9.65797 15.2602C9.68797 15.5202 9.71797 15.7802 9.74797 16.0302C9.77797 16.2802 9.80797 16.5002 9.82797 16.7002C9.85797 16.9002 9.87797 17.0602 9.88797 17.1802C9.90797 17.3002 9.90797 17.3702 9.90797 17.3802C9.90797 17.4202 9.92797 17.4502 9.94797 17.4702C9.97797 17.5002 10.008 17.5102 10.058 17.4902C10.318 17.4202 10.578 17.3502 10.838 17.2802C10.888 17.2702 10.928 17.2402 10.958 17.2102C10.988 17.1802 11.008 17.1302 11.038 17.0602C11.238 15.8902 11.428 14.7302 11.628 13.5702C11.818 14.6402 12.008 15.7202 12.208 16.8002C12.228 16.8502 12.258 16.8902 12.288 16.9102C12.318 16.9302 12.358 16.9402 12.408 16.9302C12.668 16.8802 12.928 16.8302 13.188 16.7802C13.238 16.7702 13.268 16.7502 13.298 16.7102C13.328 16.6702 13.338 16.6302 13.348 16.6002C13.348 16.5902 13.358 16.5202 13.378 16.3902C13.398 16.2602 13.418 16.0902 13.438 15.8802C13.468 15.6702 13.488 15.4402 13.518 15.1702C13.548 14.9102 13.578 14.6402 13.608 14.3602C13.608 14.3502 13.608 14.3402 13.608 14.3302C13.738 14.2902 13.838 14.1602 13.838 14.0302C13.838 13.9202 13.768 13.8302 13.668 13.8102C13.728 13.3102 13.788 12.7702 13.858 12.1902C13.868 12.1502 13.878 12.1202 13.898 12.0902C13.918 12.0602 13.938 12.0402 13.958 12.0202C13.998 11.9902 14.028 11.9502 14.058 11.8902C14.088 11.8302 14.108 11.7702 14.108 11.6902V11.4802C13.818 11.5302 13.538 11.5702 13.258 11.6302C13.298 11.6302 13.068 13.6802 12.998 14.2502Z" fill="white"/>
<path d="M30.2387 14.9802C30.2387 14.8502 30.1387 14.7102 30.0087 14.6502C29.9787 14.4602 29.9487 14.2702 29.9087 14.0802C29.8687 13.8202 29.8287 13.5902 29.7887 13.3802C29.7587 13.1702 29.7287 13.0002 29.6987 12.8602C29.6787 12.7302 29.6587 12.6502 29.6587 12.6302C29.6487 12.5402 29.6087 12.4602 29.5487 12.3802C29.4887 12.3002 29.3987 12.2502 29.2887 12.2202C28.9787 12.1402 28.6687 12.0602 28.3587 11.9902V12.1502C28.3587 12.3502 28.4187 12.4802 28.5287 12.5602C28.5487 12.5702 28.5587 12.6002 28.5587 12.6302C28.5587 12.6602 28.5587 12.6902 28.5487 12.7302C28.5487 12.7302 28.5387 12.7902 28.5187 12.8902C28.4987 12.9902 28.4687 13.1302 28.4387 13.3002C28.4087 13.4702 28.3687 13.6602 28.3287 13.8802C28.3087 13.9902 28.2887 14.0902 28.2687 14.2002C28.1187 14.1702 27.9987 14.2602 27.9987 14.4102C27.9987 14.5202 28.0687 14.6302 28.1687 14.7002C28.0387 15.3702 27.7188 17.0002 27.7188 17.0002C27.9387 17.0502 28.1587 17.1002 28.3787 17.1502C28.3787 17.1502 28.5687 16.0302 28.5787 16.0102C28.5887 15.9202 28.6287 15.8802 28.6987 15.9002C28.9587 15.9602 29.2287 16.0302 29.4887 16.1002C29.5287 16.1102 29.5687 16.1302 29.5887 16.1502C29.6187 16.1802 29.6387 16.2202 29.6387 16.2802C29.6387 16.3002 29.7887 17.5102 29.7887 17.5102C30.0187 17.5802 30.2487 17.6402 30.4787 17.7102C30.4787 17.7102 30.1987 16.0102 30.0487 15.1702C30.1787 15.1502 30.2387 15.0802 30.2387 14.9802ZM29.5387 15.5002C29.5187 15.5202 29.4987 15.5202 29.4587 15.5102C29.2387 15.4502 29.0287 15.4002 28.8087 15.3402C28.7787 15.3302 28.7587 15.3202 28.7387 15.2902C28.7187 15.2702 28.7087 15.2402 28.7187 15.2102C28.7187 15.2102 28.7287 15.1702 28.7387 15.1002C28.7487 15.0302 28.7687 14.9402 28.7787 14.8302C28.7987 14.7202 28.8187 14.6002 28.8387 14.4602C28.8587 14.3202 28.8887 14.1802 28.9187 14.0402C28.9887 13.6602 29.0587 13.2802 29.1287 12.8902C29.1387 12.8902 29.1387 12.8902 29.1387 12.8902C29.2087 13.3102 29.2787 13.7202 29.3487 14.1402C29.3787 14.3002 29.3987 14.4502 29.4287 14.6002C29.4487 14.7502 29.4687 14.8902 29.4887 15.0002C29.5087 15.1202 29.5187 15.2202 29.5387 15.3002C29.5487 15.3802 29.5587 15.4202 29.5587 15.4202C29.5687 15.4602 29.5587 15.4902 29.5387 15.5002Z" fill="white"/>
<path d="M21.8184 15.6902C21.7984 15.6702 21.7784 15.6602 21.7584 15.6502C21.7384 15.6402 21.7384 15.6102 21.7384 15.5602V14.3802C21.7384 14.2102 21.7084 14.0502 21.6584 13.9102C21.6084 13.7702 21.5284 13.6602 21.4184 13.5802C21.3684 13.5302 21.3584 13.4802 21.4084 13.4402C21.5084 13.3702 21.5884 13.2702 21.6484 13.1502C21.7084 13.0302 21.7384 12.9002 21.7384 12.7502V12.2102C21.7384 12.0402 21.7184 11.8802 21.6784 11.7402C21.6384 11.6002 21.5684 11.4702 21.4784 11.3702C21.3884 11.2702 21.2684 11.1802 21.1284 11.1202C20.9884 11.0602 20.8184 11.0202 20.6084 11.0202C20.1184 11.0102 19.6384 11.0102 19.1484 11.0202V11.2202C19.1484 11.3202 19.1684 11.3902 19.1984 11.4402C19.2384 11.4902 19.2684 11.5302 19.3084 11.5502C19.3284 11.5602 19.3484 11.5702 19.3584 11.5902C19.3684 11.6102 19.3784 11.6402 19.3784 11.6802V13.2502C19.2484 13.2802 19.1584 13.3902 19.1584 13.5202C19.1584 13.6502 19.2484 13.7602 19.3784 13.7802V16.1702C19.6084 16.1702 19.8384 16.1702 20.0684 16.1702V13.9002C20.0684 13.8402 20.0984 13.8002 20.1584 13.8002C20.3084 13.8002 20.4484 13.8002 20.5984 13.8102C20.7484 13.8102 20.8584 13.8602 20.9284 13.9502C20.9984 14.0402 21.0284 14.1702 21.0284 14.3302V15.8402C21.0284 15.9402 21.0584 16.0202 21.1184 16.0902C21.1784 16.1502 21.2684 16.1902 21.3884 16.1902C21.5884 16.2002 21.7784 16.2102 21.9784 16.2202V15.9502C21.9784 15.8702 21.9584 15.8102 21.9284 15.7702C21.8984 15.7502 21.8584 15.7202 21.8184 15.6902ZM21.0384 12.7402C21.0384 12.9002 21.0084 13.0302 20.9384 13.1202C20.8684 13.2102 20.7584 13.2602 20.6084 13.2602C20.4584 13.2602 20.3084 13.2602 20.1584 13.2502C20.1384 13.2502 20.1184 13.2402 20.0984 13.2302C20.0784 13.2202 20.0684 13.2002 20.0684 13.1802V11.7002C20.0684 11.6402 20.1084 11.6002 20.1784 11.6002C20.3184 11.6002 20.4584 11.6002 20.5984 11.6102C20.7484 11.6102 20.8584 11.6602 20.9284 11.7602C20.9984 11.8602 21.0284 11.9802 21.0284 12.1402V12.7402H21.0384Z" fill="white"/>
<path d="M24.0297 14.3803C23.9597 14.4003 23.9197 14.4703 23.9197 14.5703C23.9197 14.6003 23.9297 15.7603 23.9097 15.7903C23.8897 15.8103 23.8697 15.8203 23.8397 15.8203C23.6297 15.8003 23.4297 15.7803 23.2197 15.7603C23.1897 15.7603 23.1597 15.7403 23.1497 15.7103C23.1397 15.6803 23.1297 15.6503 23.1297 15.6103C23.1297 14.3503 23.1297 13.0903 23.1197 11.8203C23.1197 11.7703 23.1297 11.7403 23.1397 11.7203C23.1497 11.7003 23.1697 11.6903 23.1897 11.6803C23.2297 11.6603 23.2597 11.6203 23.2997 11.5703C23.3397 11.5203 23.3597 11.4603 23.3597 11.3803V11.1703C22.9697 11.1303 22.5697 11.1003 22.1797 11.0803V11.2903C22.1797 11.3703 22.1997 11.4303 22.2397 11.4903C22.2797 11.5403 22.3197 11.5803 22.3497 11.6103C22.3697 11.6303 22.3897 11.6403 22.4097 11.6603C22.4197 11.6803 22.4297 11.7103 22.4297 11.7603V13.3303C22.2997 13.3503 22.2097 13.4503 22.2097 13.5803C22.2097 13.7103 22.3097 13.8303 22.4297 13.8603V16.2503C23.0497 16.2903 23.6697 16.3503 24.2897 16.4203C24.3397 16.4303 24.3797 16.4303 24.4297 16.4403C24.4697 16.4403 24.4997 16.4303 24.5397 16.4103C24.5797 16.3803 24.5997 16.3403 24.5997 16.2903V14.4003C24.4997 14.3903 24.3997 14.3803 24.2997 14.3603C24.1997 14.3503 24.0997 14.3603 24.0297 14.3803Z" fill="white"/>
<path d="M8.69781 12.7703C8.68781 12.7703 8.67781 12.7703 8.66781 12.7803H8.65781C7.93781 13.0103 7.21781 13.2603 6.50781 13.5403V13.7403C6.50781 13.8303 6.51781 13.9003 6.54781 13.9403C6.56781 13.9803 6.60781 14.0003 6.64781 14.0103C6.66781 14.0203 6.68781 14.0303 6.70781 14.0403C6.72781 14.0603 6.73781 14.0803 6.73781 14.1303V15.6903C6.61781 15.7603 6.52781 15.9003 6.52781 16.0403C6.52781 16.1703 6.61781 16.2503 6.73781 16.2203V18.6003C6.79781 18.5803 6.85781 18.5603 6.90781 18.5303C7.21781 18.4103 7.52781 18.3003 7.82781 18.2003C7.95781 18.1503 8.08781 18.1103 8.22781 18.0703C8.32781 18.0403 8.42781 18.0003 8.52781 17.9703C8.56781 17.9603 8.60781 17.9403 8.64781 17.9303H8.65781C8.67781 17.9203 8.68781 17.9203 8.70781 17.9003C8.72781 17.8803 8.74781 17.8703 8.76781 17.8403C8.79781 17.8003 8.81781 17.7503 8.81781 17.7003V17.0003C8.81781 16.7503 8.81781 16.5003 8.81781 16.2503C8.71781 16.2803 8.62781 16.3103 8.52781 16.3403C8.42781 16.3703 8.32781 16.4203 8.25781 16.4803C8.18781 16.5303 8.15781 16.6103 8.15781 16.7203C8.15781 16.7503 8.16781 17.4703 8.14781 17.5003C8.12781 17.5303 8.10781 17.5503 8.07781 17.5603C7.98781 17.5903 7.90781 17.6203 7.81781 17.6503C7.69781 17.6903 7.57781 17.7303 7.45781 17.7703C7.40781 17.7903 7.37781 17.7703 7.37781 17.7003V16.1003C7.37781 16.0403 7.40781 15.9903 7.47781 15.9703C7.74781 15.8703 8.01781 15.7803 8.28781 15.6903C8.35781 15.6703 8.38781 15.6203 8.38781 15.5603V15.1703C8.38781 15.1303 8.37781 15.1103 8.34781 15.1003C8.32781 15.0903 8.29781 15.0903 8.27781 15.1003C8.00781 15.1903 7.73781 15.2803 7.46781 15.3803C7.39781 15.4003 7.36781 15.3803 7.36781 15.3203V13.8803C7.36781 13.8503 7.37781 13.8203 7.39781 13.8003C7.41781 13.7703 7.43781 13.7503 7.45781 13.7503C7.67781 13.6703 7.88781 13.6003 8.10781 13.5303C8.11781 13.5303 8.12781 13.5403 8.13781 13.5503C8.15781 13.5703 8.14781 14.3003 8.14781 14.3303C8.14781 14.4403 8.17781 14.4903 8.24781 14.5003C8.31781 14.5103 8.41781 14.4903 8.51781 14.4603C8.61781 14.4303 8.70781 14.4003 8.80781 14.3703V13.6203V12.8903C8.80781 12.8503 8.78781 12.8203 8.75781 12.8003C8.75781 12.7803 8.72781 12.7703 8.69781 12.7703Z" fill="white"/>
<path d="M27.1584 11.7401C27.1484 11.7301 27.1384 11.7301 27.1284 11.7301H27.1184C26.3784 11.5901 25.6384 11.4601 24.8984 11.3601V11.5601C24.8984 11.6501 24.9084 11.7201 24.9384 11.7801C24.9684 11.8301 24.9984 11.8801 25.0484 11.9001C25.0684 11.9201 25.0884 11.9401 25.1084 11.9601C25.1284 11.9801 25.1384 12.0201 25.1384 12.0601V13.6201C25.0084 13.6301 24.9184 13.7201 24.9184 13.8501C24.9184 13.9801 25.0184 14.1001 25.1384 14.1401V16.5201C25.1984 16.5301 25.2584 16.5401 25.3184 16.5501C25.6384 16.6001 25.9584 16.6501 26.2784 16.7001C26.4184 16.7201 26.5484 16.7501 26.6884 16.7701C26.7884 16.7901 26.8884 16.8101 26.9984 16.8301C27.0384 16.8401 27.0784 16.8501 27.1284 16.8501H27.1384C27.1584 16.8501 27.1684 16.8501 27.1884 16.8501C27.2084 16.8501 27.2384 16.8401 27.2584 16.8201C27.2884 16.8001 27.3084 16.7601 27.3084 16.7101V16.0001V15.2501C27.2084 15.2301 27.1084 15.2101 27.0184 15.1901C26.9184 15.1701 26.8184 15.1701 26.7484 15.1901C26.6784 15.2101 26.6484 15.2701 26.6484 15.3801C26.6484 15.4101 26.6584 16.1401 26.6384 16.1601C26.6184 16.1801 26.5984 16.1901 26.5684 16.1801C26.4784 16.1601 26.3884 16.1501 26.2984 16.1301C26.1784 16.1101 26.0484 16.0901 25.9284 16.0701C25.8684 16.0601 25.8484 16.0201 25.8484 15.9601V14.3601C25.8484 14.3001 25.8884 14.2701 25.9584 14.2801C26.2384 14.3301 26.5184 14.3701 26.7984 14.4301C26.8684 14.4401 26.8984 14.4201 26.8984 14.3501V13.9701C26.8984 13.9301 26.8884 13.9001 26.8584 13.8801C26.8284 13.8601 26.8084 13.8501 26.7884 13.8401C26.5084 13.7901 26.2384 13.7401 25.9584 13.6901C25.8884 13.6801 25.8484 13.6401 25.8484 13.5801V12.1401C25.8484 12.1101 25.8584 12.0901 25.8784 12.0701C25.8984 12.0501 25.9184 12.0501 25.9484 12.0501C26.1684 12.0901 26.3984 12.1201 26.6184 12.1701C26.6284 12.1801 26.6384 12.1901 26.6484 12.2001C26.6684 12.2301 26.6584 12.9501 26.6584 12.9801C26.6584 13.0901 26.6984 13.1601 26.7584 13.2101C26.8284 13.2601 26.9284 13.2901 27.0284 13.3101C27.1284 13.3301 27.2284 13.3501 27.3184 13.3701V12.6201V11.8901C27.3184 11.8501 27.2984 11.8201 27.2684 11.7801C27.2284 11.7701 27.1984 11.7501 27.1584 11.7401Z" fill="white"/>
<path d="M14.3091 27.4202L14.7991 27.8902C14.8791 27.9702 14.9891 28.0802 14.9691 28.2302C14.9591 28.3002 14.9191 28.3702 14.8591 28.4302C14.7891 28.5102 14.7091 28.5302 14.6491 28.5402C14.5091 28.5602 14.4091 28.4702 14.3091 28.3702L14.0291 28.1002L13.7391 28.4002L13.5391 28.2102L14.3091 27.4202ZM14.1591 27.9602L14.4091 28.2002C14.4691 28.2602 14.5591 28.3502 14.6591 28.2402C14.6991 28.2002 14.7091 28.1602 14.7091 28.1202C14.7091 28.0702 14.6791 28.0402 14.5891 27.9602L14.3691 27.7402L14.1591 27.9602Z" fill="white"/>
<path d="M15.6208 28.5603L16.5008 29.0903L16.4008 29.2603L15.7608 28.8703L15.6308 29.0803L16.2508 29.4503L16.1508 29.6203L15.5308 29.2503L15.3908 29.4803L16.0608 29.8803L15.9608 30.0503L15.0508 29.5103L15.6208 28.5603Z" fill="white"/>
<path d="M17.1486 29.3801L17.4086 29.4701L17.1286 30.3201L17.7086 30.5101L17.6486 30.7001L16.8086 30.4201L17.1486 29.3801Z" fill="white"/>
<path d="M18.6583 29.79L18.9283 29.83L18.7583 30.92L18.4883 30.88L18.6583 29.79Z" fill="white"/>
<path d="M20.9988 30.5903C20.9788 30.6603 20.9588 30.7403 20.8688 30.8303C20.7788 30.9103 20.6388 31.0103 20.3588 31.0203C19.9688 31.0403 19.6888 30.8403 19.6688 30.4603C19.6488 30.0503 19.9788 29.8603 20.3188 29.8503C20.4488 29.8403 20.8088 29.8603 20.9688 30.1703L20.6688 30.2203C20.6388 30.1703 20.5488 30.0503 20.3288 30.0603C20.0788 30.0703 19.9488 30.2503 19.9488 30.4603C19.9588 30.7003 20.1488 30.8403 20.3588 30.8303C20.5988 30.8203 20.6688 30.6803 20.6988 30.6103L20.9988 30.5903Z" fill="white"/>
<path d="M21.9812 29.6303L22.2712 29.5503L23.0912 30.4603L22.7912 30.5503L22.6412 30.3803L22.1012 30.5403L22.0712 30.7703L21.7812 30.8603L21.9812 29.6303ZM22.2412 29.9003C22.2312 29.8903 22.2213 29.8803 22.2113 29.8603C22.2013 29.8503 22.1912 29.8403 22.1912 29.8203C22.1912 29.8303 22.1912 29.8503 22.1912 29.8603C22.1912 29.8803 22.1912 29.8903 22.1912 29.9103L22.1312 30.3103L22.5012 30.2003L22.2412 29.9003Z" fill="white"/>
<path d="M23.3281 29.1403L23.5681 29.0003L24.3481 29.2503C24.4481 29.2803 24.4581 29.2903 24.5681 29.3303C24.5081 29.2403 24.4881 29.2203 24.4381 29.1403L24.1481 28.6603L24.3781 28.5203L24.9481 29.4703L24.6981 29.6003L23.9081 29.3503C23.8281 29.3203 23.7881 29.3103 23.6981 29.2703C23.7481 29.3403 23.7581 29.3503 23.7981 29.4303L24.1081 29.9503L23.8781 30.0803L23.3281 29.1403Z" fill="white"/>
<path d="M25.5999 28.4702C25.7399 28.5202 25.8799 28.4402 25.9899 28.3402C26.0399 28.2902 26.1799 28.1402 26.0899 28.0402C26.0299 27.9802 25.9699 28.0202 25.9199 28.0602C25.8799 28.0802 25.6899 28.2202 25.6499 28.2502C25.5599 28.3102 25.3499 28.4502 25.1699 28.2702C25.1299 28.2302 25.0999 28.1802 25.0899 28.1302C25.0499 27.9602 25.1699 27.7902 25.2999 27.6702C25.4199 27.5602 25.5199 27.4902 25.6499 27.4502C25.7699 27.4202 25.8599 27.4402 25.8999 27.4502L25.7599 27.6802C25.7399 27.6702 25.6999 27.6602 25.6299 27.6802C25.5499 27.7102 25.4799 27.7702 25.4399 27.8002C25.3499 27.8802 25.2799 27.9902 25.3499 28.0602C25.3999 28.1102 25.4599 28.0802 25.5299 28.0402C25.5699 28.0202 25.7599 27.8902 25.7999 27.8602C25.9099 27.7902 26.0999 27.6702 26.2699 27.8402C26.5199 28.0902 26.2199 28.4002 26.1199 28.4902C25.9899 28.6202 25.7699 28.7902 25.4699 28.6902L25.5999 28.4702Z" fill="white"/>
<path d="M18.6778 23.1902C18.6778 23.1902 14.7278 21.8702 16.4478 17.6602C16.4478 17.6602 12.2678 17.8302 6.54781 20.1402C6.54781 20.1402 6.14781 20.3102 5.90781 20.3902C5.67781 20.4702 5.29781 20.6202 4.75781 20.3602C4.75781 20.3602 9.98781 17.6202 16.7178 16.9902C17.6078 16.9102 17.7178 17.0402 17.4878 17.3702C17.2978 17.6602 14.8978 20.7102 18.6778 23.1902Z" fill="white"/>
<path d="M15.1705 18.8501C11.7905 19.2901 8.48047 20.4701 8.48047 20.4701C9.04047 21.4701 10.5705 21.0501 10.5705 21.0501C13.4405 20.2401 14.7205 19.9601 15.1305 19.8801C15.1105 19.5701 15.1205 19.2201 15.1705 18.8501Z" fill="#B4975A"/>
<path d="M15.1872 20.5002C14.6272 20.6102 12.2572 21.1002 9.86719 21.9902C9.86719 21.9902 10.6172 22.8502 12.1172 22.4202C13.3772 22.0602 14.9872 21.5502 15.4672 21.3902C15.3472 21.1302 15.2572 20.8302 15.1872 20.5002Z" fill="#B4975A"/>
<path d="M15.7181 21.8701C15.2081 22.0301 12.6581 22.8601 11.5781 23.2801C11.5781 23.2801 12.1981 24.1101 13.9781 23.4101C15.2181 22.9201 15.9081 22.6301 16.2081 22.5101C16.0281 22.3201 15.8681 22.1101 15.7181 21.8701Z" fill="#B4975A"/>
<path d="M16.6108 22.8601C16.1608 23.0501 14.5108 23.7801 13.5508 24.2401C13.5508 24.2401 14.7608 24.8301 16.2708 23.9001L17.2108 23.2801C17.0108 23.1601 16.8008 23.0201 16.6108 22.8601Z" fill="#B4975A"/>
<path d="M17.67 23.52C17.37 23.71 16.11 24.5 15.5 24.95C15.5 24.95 16.54 25.38 17.61 24.37C17.96 24.04 18.15 23.86 18.25 23.75C18.06 23.69 17.87 23.61 17.67 23.52Z" fill="#B4975A"/>
<path d="M21.2227 23.1902C21.2227 23.1902 25.1727 21.8702 23.4527 17.6602C23.4527 17.6602 27.6327 17.8302 33.3527 20.1402C33.3527 20.1402 33.7527 20.3102 33.9927 20.3902C34.2227 20.4702 34.6027 20.6202 35.1427 20.3602C35.1427 20.3602 29.9127 17.6202 23.1827 16.9902C22.2927 16.9102 22.1827 17.0402 22.4127 17.3702C22.6027 17.6602 25.0027 20.7102 21.2227 23.1902Z" fill="white"/>
<path d="M24.7344 18.8501C28.1144 19.2901 31.4244 20.4701 31.4244 20.4701C30.8644 21.4701 29.3344 21.0501 29.3344 21.0501C26.4644 20.2401 25.1844 19.9601 24.7744 19.8801C24.7944 19.5701 24.7844 19.2201 24.7344 18.8501Z" fill="#B4975A"/>
<path d="M24.7136 20.5002C25.2736 20.6102 27.6436 21.1002 30.0336 21.9902C30.0336 21.9902 29.2836 22.8502 27.7836 22.4202C26.5236 22.0602 24.9136 21.5502 24.4336 21.3902C24.5536 21.1302 24.6436 20.8302 24.7136 20.5002Z" fill="#B4975A"/>
<path d="M24.1814 21.8701C24.6914 22.0301 27.2414 22.8601 28.3214 23.2801C28.3214 23.2801 27.7014 24.1101 25.9214 23.4101C24.6814 22.9201 23.9914 22.6301 23.6914 22.5101C23.8714 22.3201 24.0314 22.1101 24.1814 21.8701Z" fill="#B4975A"/>
<path d="M23.2914 22.8604C23.7414 23.0504 25.3914 23.7804 26.3514 24.2404C26.3514 24.2404 25.1414 24.8304 23.6314 23.9004L22.6914 23.2804C22.8914 23.1604 23.1014 23.0204 23.2914 22.8604Z" fill="#B4975A"/>
<path d="M22.2323 23.5203C22.5323 23.7103 23.7923 24.5003 24.4023 24.9503C24.4023 24.9503 23.3623 25.3803 22.2923 24.3703C21.9423 24.0403 21.7523 23.8603 21.6523 23.7503C21.8323 23.6903 22.0323 23.6103 22.2323 23.5203Z" fill="#B4975A"/>
<path d="M23.1788 25.48C23.1788 27.27 21.7287 28.71 19.9488 28.71C18.1588 28.71 16.7188 27.26 16.7188 25.48C16.7188 23.69 18.1688 22.25 19.9488 22.25C21.7387 22.25 23.1788 23.7 23.1788 25.48Z" fill="white"/>
<path d="M22.5067 26.1501C22.5067 27.5701 21.3567 28.7201 19.9467 28.7201C18.5267 28.7201 17.3867 27.5701 17.3867 26.1501C17.3867 24.7301 18.5367 23.5901 19.9467 23.5901C21.3667 23.5901 22.5067 24.7401 22.5067 26.1501Z" fill="#B4975A"/>
<path d="M19.947 22C18.027 22 16.457 23.56 16.457 25.49C16.457 27.41 18.017 28.98 19.947 28.98C21.867 28.98 23.437 27.42 23.437 25.49C23.437 23.56 21.867 22 19.947 22ZM22.877 24.92C22.657 25.78 22.067 26.49 21.307 26.88C21.367 26.45 21.557 26.03 21.747 25.59C22.027 24.95 22.337 24.26 22.197 23.52C22.537 23.92 22.777 24.4 22.877 24.92ZM18.417 22.93C18.807 22.7 19.257 22.55 19.727 22.51V27.2C19.487 27.18 19.257 27.14 19.037 27.07C19.017 26.49 18.777 25.95 18.537 25.42C18.157 24.54 17.827 23.78 18.417 22.93ZM19.017 27.51C19.247 27.57 19.487 27.61 19.737 27.63V28.46C19.347 28.43 18.977 28.33 18.637 28.16C18.797 28.01 18.967 27.79 19.017 27.51ZM20.167 27.63C20.417 27.62 20.657 27.58 20.887 27.51C20.937 27.79 21.107 28.01 21.267 28.16C20.927 28.32 20.557 28.43 20.167 28.46V27.63ZM20.857 27.07C20.637 27.14 20.407 27.19 20.167 27.2V22.51C20.647 22.54 21.087 22.69 21.477 22.93C22.067 23.78 21.737 24.55 21.347 25.42C21.117 25.95 20.877 26.49 20.857 27.07ZM17.697 23.53C17.567 24.27 17.867 24.96 18.147 25.6C18.337 26.04 18.527 26.47 18.587 26.9C17.817 26.52 17.237 25.81 17.017 24.93C17.117 24.39 17.357 23.92 17.697 23.53ZM17.007 26.01C17.387 26.62 17.937 27.1 18.597 27.37C18.597 27.39 18.597 27.41 18.587 27.43C18.557 27.65 18.367 27.83 18.237 27.93C17.607 27.49 17.147 26.8 17.007 26.01ZM21.647 27.93C21.517 27.83 21.337 27.65 21.297 27.43C21.297 27.41 21.297 27.39 21.287 27.37C21.947 27.09 22.497 26.62 22.877 26.01C22.737 26.8 22.287 27.49 21.647 27.93Z" fill="#0A2240"/>
<path d="M20.9864 17.4701C20.9864 17.4701 20.9564 17.5801 20.8964 17.5801C20.8264 17.5801 20.4064 17.3801 20.2064 17.2701C20.1164 17.2201 19.9964 17.1501 19.9564 17.1301C19.9564 17.1301 19.7764 17.2201 19.6964 17.2701C19.4964 17.3801 19.0764 17.5801 19.0064 17.5801C18.9364 17.5801 18.9164 17.4701 18.9164 17.4701C18.9164 17.4701 17.8164 18.1301 17.8164 19.9601C17.8164 21.3201 18.5264 21.9401 18.5264 21.9401L18.6264 22.3301H19.8364H20.0764H21.2864L21.3864 21.9401C21.3864 21.9401 22.0964 21.3201 22.0964 19.9601C22.0764 18.1401 20.9864 17.4701 20.9864 17.4701Z" fill="#0A2240"/>
<path d="M21.5067 19.5102C21.5067 18.9402 21.2767 18.4802 21.0267 18.2102C21.0267 18.2102 21.0167 18.3702 20.7467 18.1902C20.5167 18.0302 20.2367 17.9402 19.9467 17.9402C19.6467 17.9402 19.3767 18.0302 19.1367 18.1902C18.8767 18.3702 18.8667 18.2102 18.8667 18.2102C18.6167 18.4802 18.3867 18.9502 18.3867 19.5102C18.3867 19.9802 18.5067 20.2102 18.5467 20.2802C18.7767 20.8802 19.3167 21.3002 19.9467 21.3002C20.5667 21.3002 21.1067 20.8902 21.3367 20.3002C21.3567 20.2702 21.5067 20.0502 21.5067 19.5102Z" fill="white"/>
<path d="M20.5356 20.7802C20.5256 20.7802 20.5256 20.7802 20.5356 20.7802C20.5256 20.7702 20.3756 20.4802 20.6256 20.2802C20.6256 20.2802 21.2056 20.4002 21.2156 19.6402C21.2156 19.6402 21.2056 19.5602 21.2856 19.4002C21.2856 19.4002 21.1356 19.2702 20.8156 19.5102C20.4956 19.7502 20.3256 20.4302 20.1456 20.2702C19.9756 20.1102 20.0356 19.2202 19.9456 19.1902C19.8556 19.2202 19.9156 20.1102 19.7456 20.2702C19.5756 20.4302 19.3956 19.7502 19.0756 19.5102C18.7556 19.2702 18.6056 19.4002 18.6056 19.4002C18.6856 19.5602 18.6756 19.6402 18.6756 19.6402C18.6856 20.4002 19.2656 20.2802 19.2656 20.2802C19.5156 20.4802 19.3656 20.7702 19.3656 20.7702C19.3656 20.7702 19.3656 20.7802 19.3556 20.7802C18.6656 20.0402 18.2656 20.1402 18.4656 20.9702C18.6556 21.7802 19.4056 25.2602 19.5156 26.0702C19.4956 26.8002 19.4156 27.0602 19.3956 27.1102L19.3256 27.2602L19.4056 27.4302C19.5356 27.6202 19.6256 27.8302 19.6556 27.9102L19.9356 28.6302L20.2156 27.9102C20.2456 27.8302 20.3356 27.6102 20.4656 27.4202L20.5556 27.2602L20.4756 27.1002C20.4556 27.0502 20.3756 26.8002 20.3556 26.1002C20.4556 25.3802 21.2156 21.7902 21.4056 20.9602C21.6156 20.1502 21.2156 20.0502 20.5356 20.7802Z" fill="#0A2240"/>
<path d="M19.4779 24.4103C19.2279 23.1103 19.0379 22.1603 18.8779 21.4603C18.7579 20.9303 19.0779 21.1403 19.2479 21.4703L19.4779 24.4103Z" fill="#CE0E2D"/>
<path d="M20.418 24.4103C20.668 23.1103 20.858 22.1603 21.018 21.4603C21.138 20.9303 20.818 21.1403 20.648 21.4703L20.418 24.4103Z" fill="#CE0E2D"/>
<path d="M19.096 20.0303C19.046 20.0203 19.016 19.9703 19.036 19.9203C19.046 19.9003 19.056 19.8903 19.066 19.8703C19.036 19.8303 18.996 19.8003 18.946 19.7603C18.946 19.7603 18.866 20.1303 19.196 20.0903C19.196 20.0903 19.186 20.0603 19.156 20.0103C19.146 20.0303 19.116 20.0303 19.096 20.0303Z" fill="#CE0E2D"/>
<path d="M20.9436 19.7603C20.8936 19.7903 20.8636 19.8303 20.8236 19.8703C20.8336 19.8803 20.8536 19.9003 20.8536 19.9203C20.8636 19.9703 20.8336 20.0203 20.7936 20.0303C20.7736 20.0403 20.7436 20.0303 20.7236 20.0203C20.6936 20.0703 20.6836 20.1003 20.6836 20.1003C21.0236 20.1403 20.9436 19.7603 20.9436 19.7603Z" fill="#CE0E2D"/>
<path d="M20.1056 24.8903C20.2156 22.8903 20.3756 21.4703 20.3756 21.2903C20.3756 21.2303 20.3656 21.1503 20.3456 21.0603L20.2256 21.4403L20.1856 20.7703C20.1256 20.6903 20.0456 20.6203 19.9456 20.5503H19.9356C19.8356 20.6203 19.7656 20.7003 19.7056 20.7703L19.6656 21.4403L19.5456 21.0603C19.5156 21.1503 19.5156 21.2303 19.5156 21.2903C19.5156 21.4703 19.6756 22.8803 19.7856 24.8903C19.8956 26.8903 19.6456 27.2603 19.6456 27.2603C19.7856 27.4703 19.9456 27.8403 19.9456 27.8403C19.9456 27.8403 20.1056 27.4703 20.2456 27.2603C20.2456 27.2703 19.9956 26.9003 20.1056 24.8903Z" fill="#CE0E2D"/>
</svg>
