<svg width="68" height="67" viewBox="0 0 68 67" fill="none" xmlns="http://www.w3.org/2000/svg">
<g clip-path="url(#clip0_2646_65543)">
<path d="M59.7061 39.9515C57.1586 38.9906 55.2179 36.8518 54.5153 34.2302C53.9482 32.1139 54.2193 29.8901 55.2785 27.9677C55.7897 27.04 55.737 25.9039 55.1427 25.0273C54.5479 24.1506 53.5134 23.6814 52.461 23.8131C52.1105 23.8569 51.7536 23.8795 51.4001 23.8795C49.143 23.8795 47.0223 23.0016 45.4279 21.4074C43.5716 19.5509 42.6947 16.9875 43.022 14.3741C43.1536 13.3232 42.6845 12.2874 41.8079 11.6928C40.9311 11.0983 39.7952 11.0459 38.8676 11.557C36.9675 12.6036 34.7073 12.8835 32.6052 12.3202C29.9834 11.6176 27.8445 9.6772 26.8837 7.12923C26.3736 5.77719 24.9228 5.02972 23.5269 5.40019C18.266 6.79318 13.4415 9.57329 9.57484 13.4399C3.72307 19.2923 0.5 27.0736 0.5 35.3502C0.5 43.6266 3.72307 51.4079 9.57536 57.2603C15.4267 63.1119 23.2079 66.3349 31.4851 66.3356C31.4861 66.3356 31.487 66.3356 31.488 66.3356C39.763 66.3356 47.5434 63.1126 53.3957 57.2603C57.2621 53.394 60.0422 48.5695 61.4355 43.3083C61.8053 41.9113 61.0583 40.4613 59.7061 39.9515ZM17.9833 34.0573C17.4594 34.5813 16.7327 34.8819 15.9909 34.8819C15.2493 34.8819 14.5242 34.5812 13.9985 34.0573C13.4746 33.5315 13.174 32.8067 13.174 32.065C13.174 31.3251 13.4746 30.5982 13.9985 30.0742C14.5243 29.5485 15.2492 29.2481 15.9909 29.2481C16.7326 29.2481 17.4594 29.5486 17.9833 30.0742C18.5073 30.5982 18.8078 31.323 18.8078 32.065C18.8076 32.8066 18.5073 33.5334 17.9833 34.0573ZM25.4951 47.2027C24.9693 47.7267 24.2443 48.0272 23.5026 48.0272C22.7628 48.0272 22.0359 47.7267 21.512 47.2027C20.9862 46.6787 20.6857 45.9521 20.6857 45.2104C20.6857 44.4684 20.9864 43.7436 21.512 43.2178C22.0359 42.6941 22.7626 42.3935 23.5026 42.3935C24.2443 42.3935 24.9694 42.6939 25.4951 43.2178C26.019 43.7438 26.3195 44.4684 26.3195 45.2104C26.3192 45.9519 26.019 46.6787 25.4951 47.2027ZM31.1288 28.4236C30.6049 28.9475 29.8781 29.2481 29.1363 29.2481C28.3948 29.2481 27.668 28.9474 27.1457 28.4236C26.6199 27.8996 26.3195 27.173 26.3195 26.4312C26.3195 25.6894 26.6202 24.9644 27.1457 24.4405C27.6697 23.9147 28.3945 23.6144 29.1363 23.6144C29.8781 23.6144 30.6049 23.9148 31.1288 24.4405C31.6528 24.9644 31.9532 25.6893 31.9532 26.4312C31.953 27.1728 31.6526 27.8996 31.1288 28.4236ZM38.6404 52.8365C38.1146 53.3604 37.3896 53.661 36.6479 53.661C35.9082 53.661 35.1813 53.3603 34.6556 52.8365C34.1316 52.3125 33.8311 51.5857 33.8311 50.8441C33.8311 50.1021 34.1318 49.3774 34.6556 48.8534C35.1814 48.3276 35.9062 48.0272 36.6479 48.0272C37.3896 48.0272 38.1164 48.3277 38.6404 48.8534C39.1644 49.3773 39.4648 50.102 39.4648 50.8441C39.4647 51.5857 39.1644 52.3125 38.6404 52.8365ZM38.6404 39.691C38.1146 40.2149 37.3896 40.5155 36.6479 40.5155C35.9082 40.5155 35.1813 40.2148 34.6556 39.691C34.1316 39.167 33.8311 38.4402 33.8311 37.6986C33.8311 36.9567 34.1318 36.2318 34.6556 35.7079C35.1814 35.1821 35.9082 34.8818 36.6479 34.8818C37.3896 34.8818 38.1147 35.1822 38.6404 35.7079C39.1644 36.2318 39.4648 36.9565 39.4648 37.6986C39.4647 38.4403 39.1644 39.1671 38.6404 39.691Z" fill="#06543C"/>
<path d="M66.6748 29.374C66.1509 28.8501 65.4258 28.5495 64.6841 28.5495C63.9424 28.5495 63.2157 28.8502 62.6917 29.374C62.1678 29.8998 61.8672 30.6245 61.8672 31.3663C61.8672 32.1082 62.1679 32.8349 62.6917 33.3588C63.2157 33.8828 63.9422 34.1832 64.6841 34.1832C65.4259 34.1832 66.1509 33.8828 66.6748 33.3588C67.1988 32.8349 67.5009 32.1082 67.5009 31.3663C67.5009 30.6245 67.1988 29.8995 66.6748 29.374Z" fill="#06543C"/>
<path d="M36.1336 1.48878C35.6096 0.964821 34.8828 0.664368 34.1411 0.664368C33.3993 0.664368 32.6723 0.964821 32.1505 1.48878C31.6244 2.01274 31.3242 2.7394 31.3242 3.48125C31.3242 4.22113 31.6247 4.94792 32.1505 5.47358C32.6742 5.99754 33.3991 6.29813 34.1411 6.29813C34.8831 6.29813 35.6096 5.99767 36.1336 5.47358C36.6575 4.94779 36.958 4.22099 36.958 3.48125C36.958 2.73954 36.6575 2.01444 36.1336 1.48878Z" fill="#06543C"/>
<path d="M53.3955 13.4399C52.8735 12.916 52.1467 12.6155 51.4048 12.6155C50.6611 12.6155 49.9364 12.916 49.4124 13.4399C48.8885 13.9639 48.5879 14.6905 48.5879 15.4324C48.5879 16.1741 48.8886 16.8991 49.4124 17.4249C49.9364 17.9486 50.6629 18.2493 51.4048 18.2493C52.1466 18.2493 52.8714 17.9486 53.3955 17.4249C53.9213 16.8988 54.2216 16.1721 54.2216 15.4324C54.2216 14.6905 53.9212 13.9638 53.3955 13.4399Z" fill="#06543C"/>
</g>
<defs>
<clipPath id="clip0_2646_65543">
<rect width="67" height="67" fill="white" transform="translate(0.5)"/>
</clipPath>
</defs>
</svg>
