<svg width="25" height="24" viewBox="0 0 25 24" fill="none" xmlns="http://www.w3.org/2000/svg">
<g clip-path="url(#clip0_3097_21311)">
<path d="M24.6002 12.2764C24.6002 11.4607 24.5341 10.6406 24.393 9.83807H13.0742V14.4591H19.556C19.287 15.9494 18.4228 17.2678 17.1573 18.1056V21.1039H21.0243C23.2951 19.0139 24.6002 15.9274 24.6002 12.2764Z" fill="#4285F4"/>
<path d="M13.0731 24.0008C16.3096 24.0008 19.0389 22.9382 21.0275 21.1039L17.1606 18.1055C16.0847 18.8375 14.6957 19.252 13.0775 19.252C9.94689 19.252 7.29247 17.1399 6.34006 14.3003H2.34961V17.3912C4.38672 21.4434 8.53591 24.0008 13.0731 24.0008Z" fill="#34A853"/>
<path d="M6.33676 14.3003C5.83409 12.8099 5.83409 11.1961 6.33676 9.70575V6.61481H2.35072C0.648718 10.0056 0.648718 14.0004 2.35072 17.3912L6.33676 14.3003Z" fill="#FBBC04"/>
<path d="M13.0731 4.74966C14.7839 4.7232 16.4374 5.36697 17.6765 6.54867L21.1025 3.12262C18.9331 1.0855 16.0538 -0.034466 13.0731 0.000808666C8.5359 0.000808666 4.38672 2.55822 2.34961 6.61481L6.33565 9.70575C7.28365 6.86173 9.94248 4.74966 13.0731 4.74966Z" fill="#EA4335"/>
</g>
<defs>
<clipPath id="clip0_3097_21311">
<rect width="24" height="24" fill="white" transform="translate(0.833984)"/>
</clipPath>
</defs>
</svg>
