<svg width="262" height="262" viewBox="0 0 262 262" fill="none" xmlns="http://www.w3.org/2000/svg">
<path d="M69.9151 64.7641C64.7172 61.7362 57.4868 62.1428 49.5327 66.7526C33.7602 75.8818 20.97 97.9816 21.0152 116.149C21.0152 125.188 24.2238 131.515 29.3765 134.498L16.6768 127.131C11.5241 124.149 8.31555 117.776 8.31555 108.737C8.27031 90.615 21.0152 68.47 36.833 59.3408C44.7872 54.7764 52.0175 54.3243 57.2154 57.3522L69.9151 64.7641Z" fill="#06543C"/>
<path d="M78.2428 83.1064C78.3196 101.278 65.5144 123.399 49.7196 132.524C41.7451 137.124 34.5371 137.508 29.3236 134.479L16.6719 127.118C11.5343 124.166 8.31454 117.764 8.31454 108.754C8.27616 90.6204 21.0037 68.4613 36.8377 59.3368C44.7739 54.7746 52.0194 54.3146 57.2337 57.3432L69.6552 64.6275C74.9453 67.5412 78.2428 73.9436 78.2428 83.1064Z" fill="#06543C"/>
<path d="M36.9076 137.985C33.8693 137.985 31.0492 137.263 28.5489 135.811L15.897 128.451C10.1026 125.121 6.77451 117.938 6.77451 108.754C6.73312 90.1021 19.8741 67.3306 36.0685 57.9993C44.2937 53.2734 52.0861 52.5773 58.0085 56.0126L70.4346 63.3009C76.451 66.612 79.7829 73.6519 79.7829 83.1074C79.8581 101.717 66.719 124.481 50.4907 133.858C45.7347 136.601 41.1142 137.985 36.9076 137.985ZM49.7024 56.9458C46.0339 56.9458 41.9138 58.195 37.6056 60.6708C22.2672 69.5092 9.81849 91.0767 9.85611 108.75C9.85611 116.806 12.6198 123.014 17.4397 125.783L30.0991 133.147C35.0658 136.029 41.7633 135.333 48.9499 131.186C64.3259 122.303 76.7765 100.739 76.7013 83.1149V83.1074C76.7013 74.8258 73.9357 68.7454 68.9126 65.9799L56.4545 58.6728C54.4641 57.5177 52.1858 56.9458 49.7024 56.9458Z" fill="#06543C"/>
<path d="M49.5424 66.7405C65.3432 57.6179 78.2098 64.9313 78.2613 83.0878C78.3128 101.263 65.5296 123.385 49.7289 132.508C33.9281 141.631 21.0614 134.317 21.0099 116.142C20.9584 97.9854 33.7416 75.8631 49.5424 66.7405Z" fill="#32D583"/>
<path d="M36.8805 137.989C33.8855 137.989 31.1049 137.286 28.6403 135.867C22.7518 132.477 19.4952 125.475 19.4689 116.147C19.4162 97.5296 32.561 74.7656 48.7705 65.4042C56.9448 60.6858 64.709 59.9709 70.6351 63.3836C76.5199 66.77 79.7746 73.7647 79.8009 83.0848C79.8555 101.714 66.7107 124.485 50.4994 133.843C45.7265 136.597 41.0909 137.989 36.8805 137.989ZM50.3131 68.0756C34.9559 76.9442 22.5016 98.5041 22.5505 116.14C22.5731 124.32 25.2822 130.377 30.1774 133.196C35.1102 136.029 41.7776 135.314 48.9567 131.171C64.3158 122.307 76.7701 100.739 76.7193 83.0923C76.6967 74.9199 73.9895 68.8695 69.0981 66.0551C64.1634 63.2105 57.4922 63.9292 50.3131 68.0756Z" fill="#06543C"/>
<path d="M253.294 223.543C251.665 228.322 244.412 229.443 241.093 225.954C243.852 230.173 242.731 236.421 239.063 239.984C235.013 243.843 228.817 244.827 223.362 243.664C217.906 242.554 213.064 239.614 208.464 236.485L208.401 236.421C210.97 244.34 204.531 253.782 196.253 254.268C192.51 254.522 188.831 253.169 185.278 251.815C166.279 244.71 147.343 237.595 128.406 230.426C128.396 230.426 128.375 230.426 128.364 230.416C128.216 230.627 128.058 230.828 127.899 231.008C125.71 233.471 122.021 233.82 118.489 233.355C117.633 233.292 116.829 233.175 116.036 232.985C113.456 232.435 110.94 231.822 108.424 231.092C106.838 230.659 105.305 230.173 103.771 229.612C103.581 229.612 103.465 229.559 103.275 229.496C101.562 228.883 99.8386 228.206 98.1891 227.529C97.7555 227.35 97.3856 227.223 96.9625 226.98C95.1757 226.239 93.4628 225.446 91.7501 224.59C72.1796 215.085 55.4955 199.321 45.3139 180.004C43.1147 175.764 41.0848 171.229 40.5982 166.502C39.7949 158.964 42.6813 151.108 40.4715 143.876C39.8582 141.973 39.0019 140.261 38.0185 138.601C36.1156 135.408 33.7258 132.532 31.7594 129.466C30.8394 128.049 29.9832 126.579 29.3699 124.983C29 124.126 28.7566 123.206 28.5769 122.223C28.5134 121.737 28.4502 121.24 28.4502 120.69C29 104.133 40.5982 84.6258 54.7661 76.3473C58.6251 74.2009 62.3679 72.9745 65.6139 72.9111H65.8041C66.354 72.9111 66.9038 72.9745 67.4536 73.0379C67.5171 73.0379 67.6438 73.0379 67.7073 73.1014C72.4863 73.4608 77.0856 75.3006 81.5683 77.0874C95.366 82.6064 109.227 88.1889 121.735 96.2243C142.595 109.652 158.656 129.518 179.209 143.506C196.316 155.221 216.31 162.707 231.767 176.441C235.817 180.057 239.803 184.72 239.612 190.175C239.433 194.595 234.706 198.644 230.784 197.967C237.466 201.277 243.546 205.76 248.631 211.152C251.761 214.525 254.763 219.124 253.294 223.543Z" fill="#A6F4C5"/>
<path d="M253.295 223.531C251.683 228.323 244.399 229.435 241.103 225.947C243.862 230.164 242.712 236.413 239.07 239.978C235.007 243.85 228.834 244.808 223.353 243.659C217.909 242.547 213.077 239.633 208.478 236.489L208.399 236.413C210.97 244.349 204.528 253.78 196.247 254.278C192.529 254.508 188.848 253.166 185.282 251.825C166.267 244.693 147.328 237.601 128.39 230.432C128.39 230.432 128.39 230.432 128.35 230.432C128.197 230.624 128.043 230.816 127.89 231.007C125.705 233.461 122.025 233.806 118.498 233.345C117.616 233.307 116.811 233.192 116.044 233.001C113.438 232.425 110.945 231.812 108.416 231.084C106.843 230.662 105.31 230.164 103.777 229.627C103.584 229.627 103.47 229.55 103.277 229.512C101.553 228.899 99.8271 228.208 98.1779 227.518C97.7567 227.365 97.3729 227.212 96.9517 226.982C95.1884 226.253 93.4643 225.448 91.7383 224.604C72.1856 215.097 55.5083 199.34 45.3117 180.018C43.1252 175.762 41.0941 171.238 40.5962 166.484C39.7912 158.97 42.6666 151.111 40.4801 143.865C39.8661 141.986 38.9863 140.261 38.0278 138.613C36.1109 135.392 33.7335 132.517 31.7773 129.45C30.8582 128.031 29.9765 126.575 29.3625 124.964C29.0181 124.121 28.7485 123.201 28.595 122.204C28.5182 121.744 28.4434 121.246 28.4434 120.709C29.0181 104.147 40.5962 84.6327 54.7801 76.352C55.9688 75.6622 57.1968 75.0866 58.3462 74.627C35.5344 119.827 58.8815 180.133 112.326 211.531C158.485 238.674 212.54 235.646 244.706 207.352C246.086 208.541 247.391 209.806 248.617 211.148C251.762 214.522 254.751 219.122 253.295 223.531Z" fill="#A6F4C5"/>
<path d="M195.32 255.843C191.531 255.843 187.934 254.477 184.73 253.258C166.069 246.278 147.463 239.287 128.855 232.243C126.603 234.591 122.95 235.49 118.288 234.881C117.435 234.824 116.549 234.693 115.675 234.482C112.92 233.895 110.396 233.27 107.995 232.571C106.456 232.153 104.947 231.679 103.438 231.133C103.186 231.096 102.993 231.032 102.851 230.979C101.019 230.328 99.2751 229.64 97.6045 228.955C96.9404 228.688 96.5867 228.541 96.1916 228.315C94.5511 227.649 92.8071 226.844 91.0594 225.967C70.9048 216.181 54.1686 200.107 43.9493 180.721C41.8271 176.631 39.5902 171.77 39.0654 166.66C38.7117 163.338 39.039 159.982 39.3551 156.738C39.784 152.359 40.1866 148.224 38.9976 144.329C38.4934 142.764 37.7597 141.187 36.693 139.389C35.6639 137.658 34.4467 135.976 33.2709 134.343C32.3039 133.004 31.3425 131.672 30.4621 130.298C29.6625 129.064 28.6447 127.397 27.9298 125.535C27.5705 124.703 27.277 123.691 27.0607 122.498C26.976 121.878 26.9102 121.313 26.9102 120.689C27.4764 103.599 39.3701 83.5589 53.9899 75.0139C58.1683 72.6924 62.1679 71.4356 65.5844 71.3679C65.5863 71.3679 65.5882 71.3679 65.5901 71.3679C66.4141 71.3679 67.0199 71.4356 67.6257 71.5071C67.7197 71.5184 67.8288 71.541 67.9436 71.5749C72.8934 71.9699 77.5628 73.8324 82.0798 75.631C95.7288 81.0906 109.778 86.712 122.568 94.9258C133.528 101.985 143.294 110.906 152.738 119.533C161.374 127.424 170.304 135.581 180.076 142.23C186.852 146.873 194.231 150.925 201.367 154.842C212.19 160.783 223.38 166.928 232.79 175.288C236.491 178.592 241.379 183.728 241.153 190.23C241.046 192.864 239.603 195.546 237.291 197.416C236.668 197.917 236.015 198.338 235.345 198.669C240.696 201.781 245.527 205.615 249.752 210.096C254.463 215.168 256.143 219.853 254.755 224.029C254.755 224.033 254.753 224.037 254.751 224.041C253.859 226.66 251.511 228.624 248.469 229.293C246.942 229.628 245.407 229.617 243.997 229.271C244.714 233.376 243.333 237.985 240.137 241.089C236.047 244.987 229.504 246.556 223.04 245.172C218.498 244.246 214.348 242.101 210.501 239.671C210.591 242.846 209.611 246.154 207.658 249.013C204.93 253.009 200.701 255.549 196.344 255.809C196.001 255.831 195.661 255.843 195.32 255.843ZM128.791 228.932C128.846 228.947 128.898 228.966 128.951 228.985C147.886 236.153 166.82 243.268 185.818 250.372C189.022 251.591 192.645 252.979 196.15 252.731C199.572 252.531 202.919 250.492 205.112 247.275C207.315 244.05 207.997 240.167 206.935 236.894C206.715 236.217 206.988 235.479 207.596 235.107C208.198 234.727 208.986 234.824 209.49 235.329C214.395 238.655 218.769 241.157 223.668 242.154C229.156 243.305 234.647 242.06 238 238.866C241.266 235.697 242.078 230.279 239.804 226.799C239.368 226.133 239.51 225.245 240.135 224.748C240.763 224.259 241.661 224.312 242.208 224.895C243.463 226.208 245.662 226.761 247.807 226.283C249.784 225.847 251.289 224.639 251.831 223.051C253.08 219.285 250.166 215.074 247.502 212.203C242.538 206.936 236.681 202.609 230.098 199.347C229.413 199.008 229.08 198.214 229.318 197.488C229.556 196.758 230.301 196.318 231.045 196.446C232.365 196.675 233.964 196.137 235.353 195.019C236.984 193.699 238.002 191.866 238.071 190.113C238.21 186.158 235.88 182.178 230.74 177.591C221.593 169.46 210.557 163.402 199.884 157.544C192.683 153.589 185.236 149.503 178.338 144.777C168.387 138.008 159.376 129.772 150.66 121.81C141.309 113.269 131.641 104.434 120.901 97.5183C108.36 89.4662 94.4495 83.9013 80.9962 78.5169C76.5995 76.7673 72.1145 74.9763 67.5918 74.6377C67.4507 74.6301 67.3115 74.6 67.1817 74.5511C66.6417 74.4947 66.2222 74.4533 65.8045 74.4533C62.7305 74.5097 59.2275 75.631 55.5156 77.6929C41.75 85.7412 30.5242 104.656 29.9918 120.741C29.9918 121.17 30.0501 121.599 30.1046 122.021C30.2683 122.905 30.4941 123.699 30.7838 124.372C31.4216 126.028 32.3302 127.514 33.0527 128.628C33.9068 129.96 34.8362 131.247 35.7712 132.541C36.9865 134.223 38.2413 135.965 39.3438 137.812C40.5309 139.822 41.3549 141.598 41.9381 143.404C43.3153 147.911 42.8619 152.551 42.4235 157.036C42.1225 160.129 41.8102 163.323 42.1319 166.341C42.6041 170.942 44.6961 175.469 46.6809 179.292C56.5898 198.094 72.8369 213.69 92.4233 223.205C94.1203 224.052 95.8003 224.827 97.5537 225.557C97.9883 225.79 98.2197 225.881 98.4661 225.978C100.404 226.772 102.103 227.438 103.794 228.044C103.975 228.044 104.131 228.104 104.3 228.165C105.794 228.71 107.286 229.184 108.83 229.606C111.182 230.287 113.637 230.896 116.357 231.476C117.11 231.66 117.831 231.762 118.596 231.814C121.315 232.176 124.835 232.138 126.748 229.986C126.861 229.854 126.983 229.703 127.098 229.538C127.358 229.162 127.771 228.921 128.227 228.879C128.413 228.864 128.61 228.879 128.791 228.932Z" fill="#06543C"/>
<path d="M241.095 227.495C240.626 227.495 240.164 227.28 239.861 226.882C239.729 226.708 226.057 209.325 164.264 186.576C163.464 186.283 163.056 185.398 163.349 184.597C163.643 183.799 164.536 183.378 165.328 183.686C228.281 206.861 241.785 224.304 242.329 225.038C242.837 225.715 242.696 226.678 242.017 227.186C241.74 227.393 241.415 227.495 241.095 227.495ZM208.437 238C207.923 238 207.423 237.744 207.129 237.278C207.009 237.09 194.647 218.224 142.241 198.929C141.441 198.635 141.033 197.751 141.327 196.95C141.62 196.152 142.514 195.734 143.306 196.039C196.931 215.782 209.246 234.847 209.744 235.648C210.192 236.371 209.97 237.315 209.252 237.767C208.998 237.925 208.715 238 208.437 238ZM230.879 199.557C230.541 199.557 230.196 199.444 229.912 199.211C229.653 199.004 203.717 178.204 176.466 171.413C175.64 171.21 175.138 170.37 175.343 169.546C175.55 168.719 176.392 168.207 177.211 168.425C205.135 175.382 231.587 196.604 231.85 196.818C232.512 197.352 232.614 198.323 232.08 198.985C231.775 199.362 231.329 199.557 230.879 199.557Z" fill="#06543C"/>
<path d="M127.899 232.552C127.538 232.552 127.177 232.424 126.885 232.168C126.244 231.607 126.18 230.637 126.738 229.993C126.819 229.903 126.898 229.805 126.977 229.703C127.717 225.704 127.291 220.59 125.845 216.237C124.343 212.064 121.757 208.049 118.163 204.336C114.7 200.671 110.617 197.909 106.717 195.467C105.905 195.068 104.987 194.575 104.07 194.083C102.802 193.402 101.538 192.72 100.232 192.111L99.7169 191.889C93.9206 189.364 89.4826 185.094 87.2156 179.867C86.0793 177.346 84.5686 172.632 86.8656 168.549C87.2795 167.812 88.2221 167.541 88.9652 167.962C89.7064 168.38 89.9698 169.321 89.5522 170.062C87.9211 172.963 89.1289 176.609 89.9943 178.524C91.9979 183.148 95.8696 186.851 100.947 189.059L101.5 189.3C102.894 189.955 104.21 190.659 105.528 191.366C106.42 191.844 107.314 192.325 108.228 192.784C112.425 195.403 116.701 198.3 120.391 202.206C124.278 206.221 127.096 210.608 128.757 215.229C130.454 220.327 130.881 226.114 129.914 230.742C129.842 231.084 129.662 231.378 129.412 231.592C129.295 231.743 129.177 231.89 129.06 232.025C128.755 232.371 128.328 232.552 127.899 232.552Z" fill="#06543C"/>
<path d="M118.459 233.385C117.643 233.323 116.827 233.197 116.011 233.009C107.601 231.252 99.4427 228.428 91.7236 224.599C92.0373 223.595 92.5395 222.717 92.9789 221.775C93.4807 220.708 94.1085 219.641 94.9868 218.825C95.6774 218.135 96.4933 217.696 97.3092 217.319C101.388 215.562 106.158 216.315 110.363 217.759C111.994 218.324 113.563 218.951 115.007 219.955C116.387 220.959 117.58 222.34 118.082 223.972C118.396 224.913 118.396 225.98 118.459 226.984C118.584 229.118 118.71 231.252 118.459 233.385Z" fill="#D1FADF"/>
<path d="M118.46 234.93C118.419 234.93 118.38 234.926 118.338 234.922C117.444 234.855 116.553 234.719 115.659 234.508C107.154 232.732 98.8571 229.858 91.0383 225.978C90.3591 225.64 90.0262 224.861 90.2519 224.135C90.504 223.333 90.8615 222.596 91.2264 221.858L91.5801 221.125C92.2856 219.623 93.0344 218.536 93.9374 217.697C94.7765 216.854 95.7886 216.324 96.6634 215.921C100.524 214.258 105.287 214.39 110.864 216.301C112.519 216.877 114.269 217.561 115.887 218.69C117.183 219.631 118.848 221.219 119.555 223.521C119.871 224.466 119.924 225.489 119.969 226.392L119.997 226.889C120.123 229.079 120.253 231.306 119.99 233.568C119.898 234.347 119.234 234.93 118.46 234.93ZM93.6872 223.841C100.896 227.292 108.504 229.865 116.327 231.498C116.57 231.555 116.809 231.607 117.046 231.649C117.1 230.166 117.014 228.669 116.921 227.104L116.891 226.547C116.852 225.775 116.814 225.042 116.62 224.462C116.252 223.262 115.36 222.118 114.1 221.2C112.886 220.357 111.522 219.793 109.857 219.213C105.039 217.561 101.017 217.407 97.9183 218.735C97.2956 219.025 96.6127 219.379 96.0784 219.913C95.4312 220.515 94.9025 221.305 94.372 222.43L93.9901 223.22C93.8885 223.427 93.7869 223.634 93.6872 223.841Z" fill="#06543C"/>
<path d="M223.644 11.08L238.958 20.6379C230.441 15.3221 218.993 16.5167 207.398 22.7333C195.862 28.9181 184.179 40.0738 175.076 54.718L159.762 45.1602C168.864 30.516 180.547 19.3602 192.084 13.1754C203.679 6.95889 215.126 5.76424 223.644 11.08Z" fill="#06543C"/>
<path d="M175.077 56.261C174.791 56.261 174.507 56.1782 174.26 56.0239L158.945 46.4668C158.224 46.0191 158.004 45.0709 158.452 44.3485C167.401 29.9489 179.088 18.3938 191.356 11.8167C203.976 5.05525 215.734 4.32529 224.46 9.77359L239.773 19.3307C240.496 19.7784 240.714 20.7304 240.265 21.4528C239.817 22.1715 238.869 22.3972 238.141 21.9457C230.393 17.1032 219.728 17.8708 208.126 24.0904C196.328 30.4154 185.055 41.5829 176.386 55.531C176.17 55.881 175.824 56.1255 175.425 56.2196C175.31 56.2459 175.193 56.261 175.077 56.261ZM161.891 44.6721L174.591 52.5999C183.43 38.8061 194.776 27.7515 206.67 21.3738C214.338 17.2612 221.681 15.395 228.235 15.7599L222.827 12.3849C215.077 7.54987 204.42 8.31369 192.812 14.5333C181.381 20.6627 170.445 31.3335 161.891 44.6721Z" fill="#06543C"/>
<path d="M175.091 54.7235C166.551 49.5164 155.18 50.7406 143.655 56.8976C131.421 63.4437 119.042 75.5562 109.772 91.5016C92.9036 120.533 93.5829 151.194 110.197 161.34L94.8619 151.804C78.2801 141.627 77.5692 110.965 94.4691 81.9347C103.739 66.0209 116.117 53.9087 128.319 47.3615C139.846 41.1729 151.248 39.9497 159.756 45.1558L175.091 54.7235Z" fill="#06543C"/>
<path d="M110.196 162.883C109.923 162.883 109.644 162.808 109.394 162.657C109.287 162.589 109.18 162.522 109.074 162.458L94.0464 153.115C76.3695 142.264 75.9669 110.654 93.1377 81.1583C102.113 65.7466 114.671 52.9348 127.59 46.004C140.127 39.2726 151.837 38.5013 160.562 43.8442L175.906 53.4126C176.625 53.8642 176.847 54.8086 176.401 55.531C175.961 56.2497 175.015 56.4754 174.288 56.039C166.53 51.3018 155.91 52.0995 144.381 58.2552C131.927 64.9188 119.798 77.3204 111.104 92.2769C95.162 119.714 95.0247 149.913 110.726 159.854L111.012 160.031C111.733 160.479 111.955 161.427 111.509 162.149C111.219 162.619 110.713 162.883 110.196 162.883ZM147.51 43.4153C141.894 43.4153 135.62 45.1913 129.048 48.7206C116.617 55.388 104.499 67.7784 95.8016 82.7085C79.7521 110.281 79.6919 140.687 95.6681 150.492L100.723 153.634C92.2629 139.039 94.7838 114.228 108.44 90.7267C117.544 75.0629 129.793 62.5671 142.927 55.5385C150.603 51.441 157.959 49.5973 164.532 49.951L158.941 46.4668C155.613 44.4275 151.748 43.4153 147.51 43.4153Z" fill="#06543C"/>
<path d="M143.639 56.909C155.174 50.7254 166.564 49.5055 175.076 54.718C184.178 40.0738 195.862 28.918 207.398 22.7332C219.609 16.1863 231.657 15.2092 240.291 21.5407C256.01 33.0796 253.522 65.4579 235.803 94.0085L177.93 187.35C175.999 190.453 173.528 192.811 171.089 194.118C168.651 195.425 166.245 195.681 164.445 194.579L110.183 161.349C93.5935 151.19 92.8949 120.52 109.778 91.5038C119.052 75.5714 131.426 63.4557 143.639 56.909Z" fill="#32D583"/>
<path d="M235.805 94.0092L177.94 187.337C175.994 190.457 173.527 192.802 171.092 194.119C168.657 195.436 166.256 195.693 164.443 194.576L110.174 161.359C108.183 160.145 106.443 158.636 104.924 156.862C137.265 169.757 178.862 157.133 205.51 123.832C232 90.7387 235.354 47.7669 216.116 19.0176C225.203 16.1534 233.728 16.7253 240.301 21.5372C256.023 33.09 253.518 65.4555 235.805 94.0092Z" fill="#039855"/>
<path d="M167.032 196.818C165.796 196.818 164.648 196.513 163.638 195.893L109.377 162.661C91.6868 151.828 91.2785 120.233 108.446 90.7305C117.425 75.3 129.987 62.4769 142.909 55.5499C154.824 49.1609 165.991 48.1563 174.557 52.6526C183.399 38.8362 194.76 27.759 206.669 21.3738C219.882 14.285 232.47 13.8899 241.201 20.2977C257.444 32.2215 255.647 64.9565 237.111 94.8205L179.238 188.164C177.227 191.392 174.591 193.989 171.814 195.475C170.149 196.37 168.525 196.818 167.032 196.818ZM144.366 58.2665C131.93 64.9339 119.809 77.3318 111.11 92.2807C95.0637 119.853 95.0092 150.248 110.987 160.035L165.248 193.266C166.941 194.301 169.178 193.398 170.358 192.758C172.668 191.524 174.892 189.315 176.621 186.539L234.492 93.1951C251.89 65.1634 254.082 33.5761 239.378 22.7811C231.642 17.1108 220.256 17.5886 208.125 24.0905C196.328 30.4154 185.055 41.583 176.386 55.5311C175.938 56.2535 174.997 56.4755 174.271 56.0315C166.526 51.2868 155.906 52.0845 144.366 58.2665Z" fill="#06543C"/>
<path d="M101.058 112.584C100.526 112.584 100.007 112.306 99.7208 111.813C99.2956 111.075 99.5496 110.131 100.287 109.706L157.511 76.6808C158.674 75.9923 160.096 75.981 161.304 76.6545C162.515 77.3318 163.251 78.5584 163.275 79.9355L163.422 89.7109C163.435 90.5612 162.756 91.2611 161.904 91.2761C161.014 91.3551 160.354 90.6064 160.341 89.756L160.194 79.9844C160.186 79.6044 159.915 79.4088 159.799 79.3448C159.66 79.262 159.374 79.1642 159.063 79.3448L101.826 112.377C101.585 112.516 101.32 112.584 101.058 112.584ZM103.536 156.644C103.004 156.644 102.484 156.366 102.198 155.873C101.773 155.136 102.027 154.191 102.765 153.766L160.877 120.241C161.614 119.823 162.559 120.072 162.982 120.805C163.407 121.543 163.153 122.487 162.416 122.912L104.304 156.437C104.061 156.577 103.798 156.644 103.536 156.644ZM97.5159 137.432C96.9834 137.432 96.4642 137.154 96.1801 136.661C95.7531 135.924 96.007 134.979 96.7426 134.554L145.853 106.191C146.594 105.774 147.534 106.022 147.958 106.756C148.385 107.493 148.131 108.438 147.395 108.863L98.2853 137.225C98.0426 137.365 97.7774 137.432 97.5159 137.432Z" fill="#06543C"/>
<path d="M144.735 101.991C147.848 100.194 150.349 101.68 150.359 105.216C150.37 108.794 147.884 113.119 144.772 114.916C141.677 116.702 139.14 115.277 139.13 111.699C139.12 108.164 141.64 103.778 144.735 101.991Z" fill="#06543C"/>
<path d="M142.242 117.223C141.437 117.223 140.681 117.031 140.013 116.648C138.455 115.752 137.596 113.995 137.59 111.703C137.577 107.583 140.376 102.73 143.964 100.656C145.958 99.505 147.913 99.3695 149.47 100.261C151.007 101.146 151.894 102.952 151.901 105.213C151.912 109.337 149.12 114.183 145.544 116.253C144.425 116.896 143.294 117.223 142.242 117.223ZM147.235 102.767C146.743 102.767 146.146 102.955 145.506 103.328C142.876 104.844 140.662 108.678 140.671 111.696C140.675 112.825 140.995 113.656 141.55 113.976C142.116 114.3 143.01 114.157 144.001 113.581C146.62 112.068 148.827 108.238 148.819 105.22C148.816 104.088 148.492 103.256 147.933 102.937C147.738 102.824 147.503 102.767 147.235 102.767Z" fill="#06543C"/>
<path d="M164.287 113.704C167.399 111.907 169.901 113.393 169.911 116.929C169.921 120.506 167.436 124.831 164.323 126.628C161.229 128.415 158.692 126.99 158.682 123.412C158.672 119.876 161.192 115.491 164.287 113.704Z" fill="#32D583"/>
<path d="M161.792 128.936C160.987 128.936 160.229 128.744 159.561 128.357C158.007 127.461 157.147 125.708 157.142 123.417C157.128 119.293 159.928 114.439 163.516 112.369C165.512 111.214 167.466 111.083 169.022 111.974C170.559 112.859 171.445 114.665 171.453 116.926C171.464 121.05 168.67 125.9 165.094 127.966C163.975 128.609 162.844 128.936 161.792 128.936ZM166.787 114.48C166.294 114.48 165.698 114.668 165.058 115.041C162.428 116.557 160.214 120.388 160.223 123.409C160.227 124.538 160.545 125.369 161.1 125.689C161.664 126.013 162.562 125.866 163.553 125.294C166.172 123.782 168.379 119.951 168.371 116.934C168.367 115.801 168.044 114.969 167.485 114.65C167.289 114.537 167.054 114.48 166.787 114.48Z" fill="#06543C"/>
<path d="M162.116 85.4822C165.228 83.6852 167.73 85.1715 167.74 88.7072C167.75 92.2848 165.265 96.6098 162.153 98.4068C159.058 100.194 156.521 98.7682 156.511 95.1906C156.501 91.6549 159.021 87.269 162.116 85.4822Z" fill="#32D583"/>
<path d="M159.621 100.713C158.818 100.713 158.06 100.521 157.394 100.137C155.836 99.2416 154.976 97.4882 154.969 95.193C154.957 91.0691 157.759 86.2191 161.345 84.1459C163.337 82.9983 165.293 82.859 166.853 83.7583C168.39 84.6425 169.274 86.4448 169.28 88.7024C169.293 92.83 166.499 97.6801 162.921 99.742C161.804 100.385 160.673 100.713 159.621 100.713ZM162.885 86.8173C160.257 88.3337 158.043 92.1678 158.05 95.1854C158.054 96.3142 158.374 97.1458 158.929 97.4656C159.495 97.7892 160.389 97.6462 161.38 97.0705C164.003 95.5617 166.208 91.7313 166.198 88.7099C166.195 87.5812 165.873 86.7496 165.314 86.426C164.757 86.1062 163.871 86.2492 162.885 86.8173Z" fill="#06543C"/>
<path d="M210.137 55.7417C209.603 55.7417 209.083 55.4633 208.799 54.9666C208.374 54.2291 208.63 53.2885 209.368 52.8633L247.406 30.9045C248.145 30.4869 249.09 30.7352 249.511 31.4689C249.938 32.2064 249.684 33.1508 248.949 33.576L210.903 55.5348C210.66 55.674 210.397 55.7417 210.137 55.7417ZM225.159 69.7613C224.625 69.7613 224.106 69.4829 223.822 68.9862C223.397 68.2487 223.65 67.3081 224.388 66.8829L249.618 52.3328C250.356 51.9114 251.302 52.1672 251.724 52.8972C252.151 53.6346 251.897 54.5791 251.161 55.0042L225.927 69.5544C225.684 69.6936 225.419 69.7613 225.159 69.7613Z" fill="#06543C"/>
<path d="M227.057 73.7644C223.945 75.5614 221.443 74.0751 221.433 70.5393C221.423 66.9617 223.908 62.6368 227.02 60.8398C230.115 59.053 232.652 60.4783 232.662 64.0559C232.672 67.5917 230.152 71.9776 227.057 73.7644Z" fill="#06543C"/>
<path d="M224.552 76.075C223.752 76.075 222.998 75.8793 222.319 75.488C220.781 74.6038 219.897 72.8015 219.892 70.5439C219.88 66.4201 222.672 61.5738 226.249 59.5043C228.226 58.3718 230.241 58.225 231.782 59.1092C233.337 60.0048 234.197 61.7619 234.203 64.0534C234.214 68.1772 231.415 73.0272 227.829 75.1005C226.704 75.7476 225.588 76.075 224.552 76.075ZM229.537 61.6114C229.039 61.6114 228.437 61.8033 227.791 62.1758C225.172 63.6884 222.966 67.5187 222.973 70.5364C222.977 71.6652 223.299 72.4967 223.856 72.8203C224.416 73.1401 225.302 72.9971 226.286 72.429C228.914 70.9126 231.129 67.0785 231.121 64.0609C231.117 62.9321 230.798 62.1005 230.243 61.7807C230.045 61.6678 229.806 61.6114 229.537 61.6114Z" fill="#06543C"/>
<path d="M207.504 62.0515C204.392 63.8485 201.89 62.3622 201.88 58.8265C201.87 55.2488 204.355 50.9239 207.468 49.1269C210.562 47.3401 213.099 48.7655 213.109 52.3431C213.12 55.8788 210.599 60.2647 207.504 62.0515Z" fill="#32D583"/>
<path d="M204.999 64.3657C204.199 64.3657 203.447 64.17 202.77 63.7825C201.233 62.8983 200.346 61.0922 200.339 58.8308C200.328 54.707 203.119 49.8607 206.696 47.7913C208.675 46.6587 210.686 46.5157 212.227 47.3962C213.785 48.2917 214.644 50.0489 214.65 52.3403C214.663 56.4604 211.864 61.3142 208.276 63.3874C207.149 64.0383 206.036 64.3657 204.999 64.3657ZM209.984 49.8983C209.486 49.8983 208.884 50.0902 208.239 50.4627C205.62 51.9753 203.413 55.8057 203.421 58.8233C203.424 59.9559 203.748 60.7874 204.307 61.1072C204.858 61.4233 205.744 61.2879 206.734 60.7159C209.364 59.1996 211.578 55.3655 211.568 52.3478C211.565 51.219 211.245 50.3875 210.69 50.0677C210.492 49.9548 210.253 49.8983 209.984 49.8983Z" fill="#06543C"/>
</svg>
