<svg width="12" height="12" viewBox="0 0 12 12" fill="none" xmlns="http://www.w3.org/2000/svg">
<g clip-path="url(#clip0_3228_140301)">
<rect width="12" height="12" rx="6" fill="white"/>
<path d="M6.07595 9.29452C6.07629 9.29894 6.07108 9.32839 6.05944 9.34123C6.04771 9.35419 6.03052 9.35894 6.01391 9.36259C5.98677 9.36856 5.95996 9.3628 5.93836 9.34644C5.92063 9.33304 5.90956 9.31423 5.90824 9.29596L5.90812 9.29496L5.908 9.29508L5.70628 8.63894C5.59329 8.30246 5.42248 7.94152 5.09114 7.62211C4.69089 7.23638 4.1009 6.96952 3.28737 6.80683C2.57829 6.66494 2.11159 6.54285 1.77405 6.41126C1.45003 6.28497 1.25894 6.15348 1.07171 5.9951C0.594498 5.59123 0.261834 5.07633 0.240234 4.42773C0.240234 4.42773 0.715026 5.09812 1.23688 4.77794C1.48358 4.62664 1.66094 4.64822 1.66094 4.64822C1.50043 4.47124 1.38201 4.24012 1.35033 3.98877C1.32508 3.78777 1.34157 3.56464 1.39929 3.32568C1.49755 2.91892 1.78367 2.62084 1.78646 2.61621C1.78646 2.61621 1.6739 3.59332 2.14149 3.93998C2.42985 4.10212 2.72572 4.03672 2.72572 4.03672C2.72572 4.03672 2.33745 3.85708 2.28307 3.28043C2.25926 3.02697 2.2967 2.82763 2.30666 2.77672C2.30666 2.77672 2.81923 3.4997 3.33278 3.20275C3.44764 3.13634 4.05371 2.82333 4.31503 2.75392C4.69864 2.65221 5.07827 2.64501 5.44339 2.73268C5.74648 2.8054 6.04235 2.94398 6.32296 3.14443C6.82312 3.50181 7.14703 3.9658 7.26302 4.14876C7.26302 4.14876 8.26965 4.10448 8.82055 4.80799L8.82131 4.80909L10.0955 5.37103L9.95102 5.46333L9.94471 5.46743L9.95123 5.47154C10.3636 5.7334 11.0849 6.19752 11.2813 6.36487L11.2818 6.3653L11.2824 6.36563L11.6475 6.53908L11.5809 6.71563V6.71575C11.5764 6.72758 11.4774 7.01061 11.6643 7.15063L11.7582 7.22102L11.7602 7.22258L11.7593 7.22479L11.4724 7.98417L11.3998 7.88666C10.9995 7.33545 10.6212 7.23364 10.4311 7.22975C10.216 7.22522 10.2008 7.33977 10.2275 7.38914C10.314 7.54886 10.7962 7.63163 10.9749 7.6498L11.0965 7.66562L10.632 8.08144L9.78991 8.02855L9.78647 8.02833L9.78681 8.0249L9.80099 7.85966V7.85865C9.79667 7.82733 9.73975 7.54519 9.05114 7.26196L9.04915 7.26129L9.04715 7.26218C8.93006 7.3162 8.68979 7.4094 8.39534 7.42521C8.04031 7.44436 7.71086 7.34863 7.41607 7.14086L7.41407 7.13964L7.41163 7.14019C7.29343 7.18048 7.06024 7.27147 6.82718 7.4314C6.3946 7.7286 6.15854 8.1172 6.12563 8.5866C6.12563 8.5866 6.08774 8.97343 6.076 9.29462" fill="#002244"/>
<path d="M3.329 4.07817C4.26677 3.79041 4.90148 3.83524 5.11815 4.20366C4.32195 4.29465 3.52573 4.52042 2.75168 4.87502C2.36389 4.84866 2.00763 4.69053 1.79852 4.45158C1.53488 4.15034 1.44783 3.70132 1.62961 3.13499C1.64257 3.62351 1.78479 3.91026 2.02073 4.07174C2.29755 4.26122 2.72545 4.26321 3.32902 4.07814L3.329 4.07817ZM6.24377 3.31151C6.56511 3.55178 6.86674 3.88271 7.11663 4.26918C6.62914 4.17921 6.12913 4.14369 5.63043 4.1637C5.483 3.86898 5.23342 3.65294 4.96205 3.58554C4.66088 3.51083 4.27484 3.5685 3.81459 3.75698C3.40131 3.9262 3.07167 3.9449 2.83472 3.81266C2.70224 3.73874 2.59899 3.61787 2.52757 3.45362C2.4703 3.32202 2.44671 3.19331 2.43473 3.12225L2.44049 3.1281C2.56611 3.25826 2.89985 3.604 3.41593 3.33674C3.6122 3.23502 4.13636 2.97794 4.3682 2.91561C4.72609 2.81944 5.081 2.81721 5.42228 2.90553C5.70485 2.97868 5.98121 3.11526 6.24375 3.31149L6.24377 3.31151ZM0.550781 4.90324C0.550781 4.90324 0.834125 5.17295 1.31089 4.92892C1.8469 4.65455 1.93829 4.95748 2.38601 5.09882C0.768677 6.02738 0.550781 4.90326 0.550781 4.90326V4.90324Z" fill="#FB4F14"/>
<path d="M11.3385 6.84689C11.3397 6.72238 11.373 6.62101 11.38 6.60152L11.1628 6.50014L11.1619 6.49993L11.1615 6.49925C11.0273 6.35427 9.57479 5.44153 9.56017 5.43224L9.55463 5.42881L9.56005 5.42537L9.66738 5.35388L8.68297 4.93729L8.68187 4.93673L8.6811 4.93573C8.28155 4.33863 7.49411 4.31485 7.34291 4.31595C7.64286 4.40859 7.73447 4.49979 7.75763 4.56053C7.77303 4.60114 7.75763 4.62649 7.75695 4.62749L7.7553 4.63016L7.75242 4.62939C4.35589 3.70436 1.57736 5.83265 1.46094 5.92361C1.59431 6.05809 1.89404 6.23926 2.9715 6.47833C3.21198 6.29062 4.3581 5.47637 6.08799 5.5243L5.80731 5.10063C5.80731 5.10063 6.87879 5.37886 7.49046 5.71841C7.44327 6.17086 7.72374 6.60692 8.17611 6.74038C8.50045 6.836 8.83487 6.75344 9.07434 6.5498L9.84296 7.03988L9.10556 6.75401C8.79198 6.98067 8.37803 7.05958 7.98181 6.93087C7.49154 6.77182 7.16643 6.33953 7.12026 5.85742C5.46037 5.44095 4.23649 6.4897 3.99191 6.72058C4.18962 6.7831 4.37207 6.85417 4.53755 6.93329C4.73915 7.0298 4.92071 7.14058 5.07987 7.26433C5.20283 7.11447 5.69298 6.59972 6.63296 6.59197C6.63296 6.59197 5.71004 6.83057 5.41583 7.58173C5.67723 7.8842 5.81183 8.20383 5.91529 8.50906C5.93876 8.21897 6.03159 7.95269 6.19232 7.71752C6.32379 7.5254 6.50027 7.35339 6.71691 7.20641C7.08577 6.95617 7.44822 6.8641 7.45187 6.86321L7.45386 6.86266L7.45542 6.86398C8.20333 7.46629 9.02658 6.99202 9.03476 6.98705L9.03642 6.98617L9.03841 6.98684C9.26859 7.0747 9.46309 7.17322 9.61607 7.27981C9.73868 7.36491 9.83528 7.45556 9.90318 7.54885C10.0085 7.69371 10.0115 7.79787 10.0108 7.81957L10.5686 7.85609L10.7322 7.71653C10.2253 7.65089 10.0716 7.49353 10.0403 7.35872C9.98579 7.03345 10.3181 6.99339 10.4695 7.01307C10.8225 7.0591 11.2518 7.37509 11.4134 7.59488L11.533 7.27393C11.3702 7.1503 11.3372 6.97345 11.3384 6.84682" fill="#FFFFFE"/>
<path d="M9.37313 5.54053C9.36842 5.57213 9.3519 5.60077 9.3269 5.62068C9.30191 5.64058 9.27029 5.65027 9.23844 5.64778C9.22189 5.64653 9.20575 5.64203 9.19094 5.63454C9.17613 5.62705 9.16294 5.61671 9.15213 5.60412C9.14132 5.59153 9.13309 5.57693 9.12793 5.56116C9.12276 5.54539 9.12075 5.52875 9.12201 5.51221C9.12455 5.48079 9.13868 5.45143 9.16166 5.42986C8.78882 5.24703 8.59375 5.21924 8.59375 5.21924C9.04536 5.51873 9.2381 5.76853 9.2381 5.76853L9.36017 5.68529L10.5021 6.32211C10.0478 5.95191 9.66977 5.70497 9.37313 5.54053Z" fill="#002244"/>
<path d="M9.12146 5.51206C9.12019 5.5286 9.1222 5.54524 9.12736 5.56102C9.13253 5.57679 9.14075 5.59139 9.15157 5.60398C9.16238 5.61657 9.17557 5.62691 9.19038 5.6344C9.20519 5.64189 9.22134 5.64639 9.23789 5.64763C9.26974 5.65012 9.30136 5.64043 9.32635 5.62053C9.35135 5.60062 9.36787 5.57198 9.37258 5.54038C9.35462 5.53042 9.33691 5.52067 9.31942 5.51138L9.19481 5.6028L9.22949 5.46401C9.20611 5.45194 9.18329 5.44054 9.16114 5.42969C9.13814 5.45125 9.12401 5.48061 9.12149 5.51203" fill="#FB4F14"/>
<path d="M9.19433 5.60312L9.31893 5.51171C9.28916 5.49552 9.25917 5.47973 9.22898 5.46433L9.1943 5.60312M11.178 6.62797C10.9091 6.73544 11.2556 7.04343 11.2556 7.04343C10.5021 6.44922 11.178 6.62797 11.178 6.62797ZM7.90039 4.6874C8.38754 4.69724 7.90404 4.49072 7.90404 4.49072C7.90404 4.49072 8.25473 4.54451 8.45877 4.86956C8.26625 4.7954 8.05569 4.72556 7.90039 4.6874Z" fill="#002244"/>
</g>
<rect x="0.2" y="0.2" width="11.6" height="11.6" rx="5.8" stroke="#101828" stroke-width="0.4"/>
<defs>
<clipPath id="clip0_3228_140301">
<rect width="12" height="12" rx="6" fill="white"/>
</clipPath>
</defs>
</svg>
