<svg width="24" height="25" viewBox="0 0 24 25" fill="none" xmlns="http://www.w3.org/2000/svg">
<g clip-path="url(#clip0_3084_108347)">
<path d="M23.206 8.28494C20.315 8.96663 20.1887 7.29494 15.8409 6.98841C9.98848 6.57575 5.07059 9.12153 1.14044 9.44774C0.286619 9.51863 0.397355 10.2281 1.01094 10.3486C2.49222 10.6937 4.02073 10.6498 5.41974 10.4626C5.37275 10.5751 5.32556 10.7485 5.48185 10.8814C6.03592 11.3517 8.26331 11.392 9.24116 11.3358C9.57318 11.3169 10.2819 11.25 10.2819 11.25C10.0798 11.2691 9.76398 11.8842 10.4318 12.0574C14.559 13.2111 16.5008 15.0742 18.73 18.0083C19.6359 17.8928 20.4889 16.8045 20.1252 15.9737L20.3059 15.5278L20.9732 15.2193L20.7819 13.7313L21.7991 13.2529C21.7991 13.2529 23.3833 9.00206 23.476 8.6925C23.5688 8.38295 23.3768 8.24462 23.2059 8.28489" fill="#FFFFFE"/>
<path d="M11.7545 8.86995C8.89293 9.03871 5.45959 10.6534 1.08789 9.93367C4.96259 9.41148 7.91652 8.13185 11.5195 7.62233L11.7545 8.86995H11.7545ZM12.0629 10.5394C10.4801 10.7257 8.64386 11.1676 5.99469 10.6691C8.27815 10.6071 9.98719 9.84406 11.8685 9.46908L12.0629 10.5395V10.5394Z" fill="#C60C30"/>
<path d="M12.2313 10.5217C13.3913 10.3973 14.4143 10.4367 15.5295 11.1156C13.2037 10.8637 12.0649 11.5124 10.6152 11.6565C15.7366 12.9984 17.6117 15.8658 18.8816 17.4547C19.7693 17.0781 19.8173 16.308 19.5912 16.0331L19.8197 15.5439L19.8302 15.2298L20.4422 14.944L20.2485 13.4217L21.3944 12.9531L22.9126 8.80367C20.3403 9.33656 19.5069 7.67571 15.8472 7.44915C14.3564 7.35671 13.0139 7.4252 11.7535 7.59032L11.959 8.8605C12.8013 8.83151 13.5942 8.93845 14.3466 9.28021C13.5194 9.22904 12.7751 9.29754 12.049 9.43203L12.2313 10.5217Z" fill="#002244"/>
<path d="M16.1836 14.0231C17.5679 14.991 18.2789 16.0633 19.0004 17.002C19.3673 16.8498 19.4824 16.4246 19.3616 16.2744L19.0123 15.845L19.4096 15.8684L19.592 15.552L19.098 15.5228L18.5415 15.6231L19.1059 15.2372L19.5355 15.2624L19.5515 15.0181L19.1126 14.8083L19.2634 14.6435L20.0753 14.6941L19.8419 12.8888C19.521 12.8498 19.2511 13.0177 19.1345 13.4811L17.6954 13.3965C17.8979 12.9382 18.2134 12.732 18.812 12.8081C18.4762 12.3385 16.8396 12.295 16.6084 13.0318L17.879 14.0714L18.0434 15.0216L17.5214 14.2651C17.052 13.8594 16.559 13.575 16.1837 14.0231" fill="#B0B7BC"/>
<path d="M20.4417 9.36757L20.5439 10.2742L21.5662 10.6573L20.6073 10.8971L20.7019 12.1196L19.8727 11.0866L18.6328 11.3782L19.3989 10.4873L18.7672 9.65154L19.8255 10.0142L20.4417 9.36757Z" fill="#FFFFFE"/>
</g>
<defs>
<clipPath id="clip0_3084_108347">
<rect width="24" height="24" fill="white" transform="translate(0 0.5)"/>
</clipPath>
</defs>
</svg>
