<svg width="13" height="12" viewBox="0 0 13 12" fill="none" xmlns="http://www.w3.org/2000/svg">
<path d="M2 5.20833C2 3.60954 2 2.81014 2.18876 2.5412C2.37752 2.27227 3.12916 2.01498 4.63246 1.5004L4.91886 1.40236C5.70249 1.13412 6.09431 1 6.5 1C6.90569 1 7.29751 1.13412 8.08114 1.40236L8.36755 1.5004C9.87084 2.01498 10.6225 2.27227 10.8112 2.5412C11 2.81014 11 3.60954 11 5.20833C11 5.44982 11 5.71171 11 5.99568C11 8.81472 8.88052 10.1827 7.55072 10.7636C7.18999 10.9212 7.00963 11 6.5 11C5.99037 11 5.81001 10.9212 5.44928 10.7636C4.11948 10.1827 2 8.81472 2 5.99568C2 5.71171 2 5.44982 2 5.20833Z" stroke="#D92D20"/>
<path d="M6.5 4V6" stroke="#D92D20" stroke-linecap="round"/>
<circle cx="6.5" cy="7.5" r="0.5" fill="#D92D20"/>
</svg>
