<svg width="17" height="16" viewBox="0 0 17 16" fill="none" xmlns="http://www.w3.org/2000/svg">
<circle opacity="0.5" cx="5.16536" cy="4.66671" r="3.33333" fill="#06543C"/>
<path d="M12.1052 6.06594L12.1407 6.38059L12.4403 6.48305C13.7392 6.9272 14.6654 8.1441 14.6654 9.56859C14.6654 11.3661 13.1892 12.8333 11.3558 12.8333H4.68917C3.38176 12.8333 2.33203 11.7874 2.33203 10.5098C2.33203 9.23207 3.38176 8.18623 4.68917 8.18623C4.84646 8.18623 4.99968 8.20135 5.14756 8.23005L6.02462 8.40023L5.71098 7.56368C5.57895 7.2115 5.50663 6.83029 5.50663 6.43133C5.50663 4.63385 6.98276 3.16663 8.81616 3.16663C10.5233 3.16663 11.922 4.43979 12.1052 6.06594Z" fill="#06543C" stroke="#06543C"/>
</svg>
